<?xml version="1.0" encoding="UTF-8"?>
<svg width="164px" height="80px" viewBox="0 0 164 80" version="1.1" xmlns="http://www.w3.org/2000/svg" xmlns:xlink="http://www.w3.org/1999/xlink">
    <!-- Generator: Sketch 50 (54983) - http://www.bohemiancoding.com/sketch -->
    <title>Export/clearThoughts-2</title>
    <desc>Created with Sketch.</desc>
    <defs></defs>
    <g id="Export/clearThoughts-2" stroke="none" stroke-width="1" fill="none" fill-rule="evenodd">
        <g id="Group" transform="translate(39.000000, 0.000000)" stroke="#262B3D" stroke-width="0.5">
            <path d="M19.2631434,52.6338141 C16.8107086,47.6273113 17.6159007,46.6660577 17.6159007,37.5496795 C17.6159007,28.4333013 14.9941329,27.3217452 19.2631434,20.6290064 C23.5321538,13.9362677 26.2541517,17.8585753 35.4053217,14.7059295 C44.5564917,11.5532837 47.1575695,9.28963637 52.7845313,10.786859 C58.411493,12.2840816 57.559063,16.9280634 61.957114,21.7708333 C66.355165,26.6136033 68.1637356,23.3897348 69.7687224,28.8782051 C71.3737092,34.3666755 69.3690869,35.2232424 68.2422243,43.2636218 C67.1153616,51.3040012 70.0050378,52.1256716 65.6282261,56.4230769 C61.2514144,60.7204823 61.40822,58.1410937 52.7845313,60.7572115 C44.1608425,63.3733294 45.3196356,66.1683887 39.9816176,65.4519231 C34.6435997,64.7354575 31.7242079,60.8937145 28.1862408,58.2684295 C24.6482737,55.6431445 21.7155782,57.6403169 19.2631434,52.6338141 Z" id="Path-2"></path>
            <path d="M13.9024081,39.8918269 C13.9024081,32.8321816 17.6712612,32.1847779 22.0778493,24.9310897 C26.4844373,17.6774016 27.1156732,13.2357643 31.583079,10.7876603 C36.0504849,8.33955619 35.3386492,12.3634298 43.841443,13.0048077 C52.3442368,13.6461856 56.3445632,10.2741236 60.9759651,13.0048077 C65.6073669,15.7354918 60.6156114,15.1761931 64.7622243,25.3397436 C68.9088371,35.5032941 74.5608352,39.8090475 74.1483088,45.2908654 C73.7357825,50.7726833 68.5050112,47.8746425 62.6272059,53.7107372 C56.7494006,59.5468319 58.2968012,65.0402645 52.4526838,66.8325321 C46.6085665,68.6247996 44.1628892,61.8407211 38.0201195,61.2572115 C31.8773497,60.673702 29.8684394,67.6547376 25.4259099,64.2652244 C20.9833805,60.8757111 24.5956662,54.419193 22.0778493,49.09375 C19.5600324,43.768307 13.9024081,46.9514723 13.9024081,39.8918269 Z" id="Path-3"></path>
            <path d="M16.6939246,54.7716346 C14.6373172,49.592043 22.3793451,45.1451411 21.9355147,36.9407051 C21.4916843,28.7362692 11.7137065,26.4423203 14.8675643,21.0104167 C18.0214222,15.5785131 27.880786,19.5852899 33.5813603,16.8830128 C39.2819346,14.1807357 35.4710053,6.33115224 43.1841452,7.58733974 C50.8972852,8.84352724 54.6446958,18.7768993 58.9241085,21.0104167 C63.2035211,23.243934 64.8421776,13.2811264 68.9027206,21.0104167 C72.9632636,28.739707 73.4577896,36.3099933 70.8938051,43.7948718 C68.3298207,51.2797502 60.3283826,49.2043698 57.3376379,54.7716346 C54.3468931,60.3388995 61.2927644,67.3013613 57.3376379,69.0296474 C53.3825113,70.7579336 47.4482555,61.7754375 42.8806847,61.0889423 C38.3131139,60.4024471 37.1924616,67.1044334 33.5813603,65.4591346 C29.970259,63.8138358 33.4656919,57.5880396 29.0154596,54.7716346 C24.5652273,51.9552296 18.7505321,59.9512262 16.6939246,54.7716346 Z" id="Path-4"></path>
            <path d="M15.9262776,39.8998397 C16.8056443,33.3143552 22.6426917,30.7914592 24.3096232,25.8453526 C25.9765547,20.899246 19.3601806,18.2912835 24.3096232,15.0248397 C29.2590658,11.758396 34.1578004,16.3390057 40.7052849,15.0248397 C47.2527695,13.7106738 49.2656715,8.2632264 53.109182,9.24439103 C56.9526925,10.2255557 51.6107833,13.9020517 57.824614,19.3950321 C64.0384447,24.8880124 71.7332059,24.554573 73.4550276,27.2299679 C75.1768492,29.9053628 68.2981347,28.4032902 67.666489,34.6875 C67.0348432,40.9717098 73.1867957,43.5337927 71.3423989,48.2483974 C69.4980021,52.9630022 62.8495874,51.065588 59.9708272,54.3589744 C57.092067,57.6523607 60.4257699,62.2730865 57.824614,63.713141 C55.2234581,65.1531956 57.0125541,59.1209049 49.3357169,60.2467949 C41.6588798,61.3726849 38.1788482,67.7742233 34.0747335,67.1963141 C29.9706187,66.6184049 32.5688786,59.727772 28.7875643,57.3533654 C25.0062501,54.9789588 20.3224564,60.5667901 18.3995404,57.3533654 C16.4766245,54.1399407 22.1752327,48.9337868 21.686829,45.4871795 C21.1984254,42.0405722 15.0469108,46.4853242 15.9262776,39.8998397 Z" id="Path-5"></path>
            <path d="M26.7477022,49.4495192 C26.7477022,41.8682379 0.157527574,39.0314707 0.157527574,34.1458333 C0.157527574,29.260196 20.9658882,35.8803845 26.7477022,28.5112179 C32.5295162,21.1420514 19.9969467,6.57790384 23.7890625,4.02644231 C27.5811783,1.47498077 37.6017247,17.1284344 42.6355974,17.8213141 C47.6694702,18.5141938 49.4654799,7.82211538 51.3651838,7.82211538 C53.2648877,7.82211538 48.4369301,17.8213141 51.3651838,17.8213141 C54.2934375,17.8213141 77.3394773,6.13575242 80.6325276,9.30929487 C83.9255778,12.4828373 65.2164154,25.2764985 65.2164154,31.1698718 C65.2164154,37.063245 83.1607298,37.1361737 80.6325276,39.5504808 C78.1043253,41.9647878 58.0413143,36.2524038 56.4404504,39.5504808 C54.8395864,42.8485577 76.102966,65.7747988 75.6548162,68.9094551 C75.2066664,72.0441114 64.1956098,51.5741085 54.2934375,54.568109 C44.3912652,57.5621094 42.3433731,79.2423599 39.0700368,79.9711538 C35.7967004,80.6999478 43.3558084,61.0300477 39.0700368,57.9575321 C34.7842651,54.8850164 23.7664165,68.9207323 20.7768474,66.8565705 C17.7872784,64.7924088 26.7477022,57.0308006 26.7477022,49.4495192 Z" id="Path-6"></path>
            <path d="M19.8980515,38.5552885 C23.1909375,32.5352564 5.29231116,16.8037088 9.66275735,11.9535256 C14.0332035,7.10334245 25.7026183,21.8298864 37.581921,18.9302885 C49.4612236,16.0306905 51.7797023,-1.53564937 57.7518474,0.215544872 C63.7239926,1.96673912 54.4433979,16.6668329 61.7875919,26.0280449 C69.1317859,35.3892568 86.1783123,33.0678888 86.9160386,37.3894231 C87.6537649,41.7109573 71.5037689,35.5220129 65.0245037,44.9895833 C58.5452385,54.4571537 67.356267,69.235382 63.2988971,71.8990385 C59.2415271,74.5626949 58.7271624,56.2089008 46.8152757,56.9439103 C34.903389,57.6789197 26.9550077,77.4594856 21.9387132,74.4511218 C16.9224188,71.442758 28.3655886,49.3904014 26.8820404,44.9895833 C25.3984923,40.5887653 14.0751834,48.0075566 12.5510294,46.6033654 C11.0268755,45.1991742 16.6051654,44.5753205 19.8980515,38.5552885 Z" id="Path-7"></path>
        </g>
    </g>
</svg>