<?xml version="1.0" encoding="UTF-8"?>
<svg width="164px" height="80px" viewBox="0 0 164 80" version="1.1" xmlns="http://www.w3.org/2000/svg" xmlns:xlink="http://www.w3.org/1999/xlink">
    <!-- Generator: Sketch 50 (54983) - http://www.bohemiancoding.com/sketch -->
    <title>Export/clearThoughts-4</title>
    <desc>Created with Sketch.</desc>
    <defs></defs>
    <g id="Export/clearThoughts-4" stroke="none" stroke-width="1" fill="none" fill-rule="evenodd">
        <g id="Group" transform="translate(40.000000, 0.000000)" stroke="#262B3D" stroke-width="0.5">
            <path d="M7.78254329,59.5970982 C4.34225873,52.623755 5.47178526,51.2848661 5.47178526,38.5870536 C5.47178526,25.8892411 1.79395977,24.3410022 7.78254329,15.0189732 C13.7711268,5.69694423 17.5895554,11.1601585 30.4268502,6.76897321 C43.264145,2.37778795 46.9129465,-0.775149345 54.8064691,1.31026786 C62.6999916,3.39568506 61.5041997,9.86408826 67.6738017,16.609375 C73.8434038,23.3546617 76.3804734,18.8642734 78.6319547,26.5089286 C80.8834361,34.1535837 78.0713445,35.3466591 76.4905775,46.5457589 C74.9098104,57.7448588 78.9634588,58.8893282 72.8236513,64.875 C66.6838438,70.8606718 66.9038113,67.2679519 54.8064691,70.9118304 C42.7091268,74.5557088 44.3346861,78.4488271 36.8464949,77.4508929 C29.3583037,76.4529586 25.2629703,71.1019595 20.2998971,67.4453125 C15.3368238,63.7886655 11.2228278,66.5704414 7.78254329,59.5970982 Z" id="Path-2"></path>
            <path d="M0.262484164,41.8493304 C0.262484164,32.0162529 5.54944513,31.1145121 11.731023,21.0111607 C17.9126009,10.9078094 18.7981009,4.72124316 25.0649942,1.31138393 C31.3318875,-2.09847531 30.3333218,3.50620578 42.2610721,4.39955357 C54.1888224,5.29290136 59.800495,0.596100719 66.2974425,4.39955357 C72.7943899,8.20300642 65.7919371,7.42398322 71.6088207,21.5803571 C77.4257044,35.7367311 85.354348,41.7340304 84.7756546,49.3694196 C84.1969611,57.0048089 76.8592159,52.968252 68.6138091,61.0970982 C60.3684023,69.2259444 62.5391015,76.8775113 54.3409523,79.3738839 C46.142803,81.8702566 42.7119981,72.4210043 34.0948981,71.6082589 C25.4777982,70.7955135 22.6596914,80.5190988 16.4276948,75.7979911 C10.1956982,71.0768833 15.2630258,62.083876 11.731023,54.6662946 C8.19902023,47.2487133 0.262484164,51.6824078 0.262484164,41.8493304 Z" id="Path-3"></path>
        </g>
    </g>
</svg>