<?xml version="1.0" encoding="UTF-8"?>
<svg width="164px" height="80px" viewBox="0 0 164 80" version="1.1" xmlns="http://www.w3.org/2000/svg" xmlns:xlink="http://www.w3.org/1999/xlink">
    <!-- Generator: Sketch 50 (54983) - http://www.bohemiancoding.com/sketch -->
    <title>Export/clearThoughts-1</title>
    <desc>Created with Sketch.</desc>
    <defs></defs>
    <g id="Export/clearThoughts-1" stroke="none" stroke-width="1" fill="none" fill-rule="evenodd">
        <g id="Group" transform="translate(42.000000, 0.000000)" stroke="#262B3D" stroke-width="0.5">
            <path d="M20.7449616,49.6663851 C18.9053785,45.8970104 19.509357,45.1732867 19.509357,38.3096042 C19.509357,31.4459218 17.5427564,30.6090359 20.7449616,25.5701014 C23.9471668,20.5311668 25.9889505,23.4842555 32.8532869,21.1106419 C39.7176234,18.7370282 41.6687044,17.0327378 45.8895154,18.1599903 C50.1103263,19.2872429 49.4709145,22.7836771 52.7699136,26.429778 C56.0689128,30.0758789 57.4255303,27.648642 58.6294386,31.780888 C59.8333469,35.9131341 58.3296701,36.5580397 57.484405,42.6116071 C56.6391399,48.6651746 58.8066999,49.2838068 55.5236324,52.519305 C52.240565,55.7548033 52.3581856,53.8127925 45.8895154,55.7824566 C39.4208451,57.7521206 40.2900614,59.8565088 36.2859885,59.3170849 C32.2819156,58.777661 30.0920659,55.8852291 27.4382198,53.9086631 C24.7843737,51.9320972 22.5845447,53.4357599 20.7449616,49.6663851 Z" id="Path-2"></path>
            <path d="M16.7238484,40.0729971 C16.7238484,34.7578201 19.5508832,34.2703926 22.856286,28.8091216 C26.1616888,23.3478506 26.6351819,20.0037608 29.9862044,18.1605936 C33.337227,16.3174265 32.8032756,19.3469838 39.181262,19.8298745 C45.5592484,20.3127652 48.5599124,17.7739541 52.0339491,19.8298745 C55.5079859,21.885795 51.7636461,21.4647014 54.8740403,29.1167954 C57.9844345,36.7688894 62.2240253,40.0106728 61.9145873,44.1379102 C61.6051493,48.2651477 57.6815227,46.083225 53.2725528,50.4771959 C48.8635828,54.8711669 50.0242955,59.007149 45.640595,60.3565396 C41.2568946,61.7059302 39.4223804,56.5982263 34.8146593,56.1589044 C30.2069383,55.7195826 28.700045,60.9755746 25.3676823,58.4236245 C22.0353197,55.8716744 24.7449125,51.0105893 22.856286,47.0010859 C20.9676595,42.9915825 16.7238484,45.3881741 16.7238484,40.0729971 Z" id="Path-3"></path>
            <path d="M18.8177783,51.2759411 C17.2751072,47.3762486 23.0824395,44.028195 22.7495202,37.85111 C22.4166008,31.6740251 15.0820928,29.9469207 17.4478167,25.8572635 C19.8135406,21.7676064 27.2090966,24.7842916 31.4851248,22.7497587 C35.7611529,20.7152257 32.9025565,14.8053077 38.6882198,15.7510859 C44.473883,16.6968641 47.2848337,24.1756578 50.4948417,25.8572635 C53.7048496,27.5388693 54.9340137,20.0379137 57.9798464,25.8572635 C61.0256792,31.6766134 61.3966256,37.3762498 59.4733685,43.011583 C57.5501115,48.6469162 51.5481945,47.0843711 49.3048225,51.2759411 C47.0614505,55.4675112 52.2715819,60.7095191 49.3048225,62.0107384 C46.338063,63.3119577 41.8867494,56.5490746 38.4605926,56.0322153 C35.0344359,55.5153559 34.1938292,60.5612529 31.4851248,59.3225145 C28.7764204,58.083776 31.3983613,53.3964005 28.0602207,51.2759411 C24.7220801,49.1554818 20.3604494,55.1756336 18.8177783,51.2759411 Z" id="Path-4"></path>
            <path d="M18.2419626,40.0790299 C18.9015798,35.1208466 23.279977,33.2213689 24.5303503,29.4974662 C25.7807236,25.7735636 20.8177497,23.8100397 24.5303503,21.3507481 C28.2429509,18.8914564 31.9175152,22.340178 36.8288148,21.3507481 C41.7401143,20.3613181 43.2500018,16.2599581 46.1330374,16.9986728 C49.0160731,17.7373875 45.0090814,20.5054057 49.6701056,24.6410473 C54.3311298,28.7766889 60.1030071,28.5256438 61.3945537,30.5399373 C62.6861004,32.5542307 57.5263437,31.4233266 57.0525432,36.1546815 C56.5787427,40.8860364 61.1933517,42.8150177 59.8098608,46.3646236 C58.42637,49.9142295 53.4393622,48.4856744 51.2799904,50.965251 C49.1206186,53.4448275 51.6212451,56.9237524 49.6701056,58.0079633 C47.718966,59.0921743 49.0609755,54.5504882 43.3025432,55.398166 C37.5441108,56.2458438 34.9337225,61.0655349 31.8552063,60.6304295 C28.7766902,60.1953241 30.7256574,55.0073959 27.8892754,53.2197153 C25.0528935,51.4320346 21.5395574,55.6390891 20.0971689,53.2197153 C18.6547804,50.8003414 22.9293338,46.8806503 22.5629798,44.2857143 C22.1966259,41.6907783 17.5823453,45.0372132 18.2419626,40.0790299 Z" id="Path-5"></path>
            <path d="M26.3591651,47.2689431 C26.3591651,41.5610285 6.4137476,39.4252385 6.4137476,35.7468629 C6.4137476,32.0684873 22.0221987,37.0527991 26.3591651,31.5045849 C30.6961314,25.9563708 21.295391,14.9910859 24.1398752,13.0701014 C26.9843595,11.1491168 34.5008193,22.9345355 38.2767514,23.4562017 C42.0526835,23.9778679 43.399879,15.9278475 44.824856,15.9278475 C46.2498331,15.9278475 42.6283589,23.4562017 44.824856,23.4562017 C47.0213532,23.4562017 64.3082981,14.658192 66.7784309,17.0475386 C69.2485637,19.4368852 55.2147313,29.0691784 55.2147313,33.5062741 C55.2147313,37.9433698 68.6748475,37.9982775 66.7784309,39.815999 C64.8820143,41.6337206 49.8326536,37.3328909 48.6318378,39.815999 C47.4310221,42.2991071 63.380785,59.5601767 63.0446257,61.9202461 C62.7084664,64.2803155 54.4490201,48.8685373 47.0213532,51.1227075 C39.5936863,53.3768778 38.0575526,69.6998463 35.6022073,70.2485521 C33.146862,70.797258 38.8169852,55.9878737 35.6022073,53.6745898 C32.3874294,51.3613058 24.1228883,61.9287366 21.8803983,60.374638 C19.6379082,58.8205394 26.3591651,52.9768576 26.3591651,47.2689431 Z" id="Path-6"></path>
            <path d="M21.2212092,39.066723 C23.6912188,34.5342664 10.2653734,22.6900511 13.543666,19.0383687 C16.8219587,15.3866864 25.5752426,26.4742388 34.4859645,24.2911438 C43.3966864,22.1080488 45.1357883,8.88242615 49.615523,10.2008929 C54.0952578,11.5193596 47.1338392,22.5869978 52.6427543,29.6350145 C58.1516695,36.6830312 70.9383506,34.9352831 71.4917226,38.1889479 C72.0450947,41.4426127 59.9309053,36.7829827 55.0707774,43.9110763 C50.2106495,51.0391698 56.8198442,62.1656351 53.7763916,64.1710907 C50.7329389,66.1765463 50.3471115,52.3580527 41.4119482,52.9114382 C32.4767848,53.4648237 26.5146659,68.3575278 22.7519194,66.0925434 C18.9891729,63.8275591 27.5727494,47.2244335 26.4599328,43.9110763 C25.3471162,40.597719 16.8534479,46.1832955 15.7101727,45.1260859 C14.5668976,44.0688763 18.7511996,43.5991795 21.2212092,39.066723 Z" id="Path-7"></path>
            <path d="M33.7835893,40.9646477 C35.6539188,32.4874942 18.5318887,25.130466 18.9137476,22.8143098 C19.2956065,20.4981537 32.7585173,32.395029 35.4720489,30.7233349 C38.1855806,29.0516409 40.4406903,0.6952508 42.3920345,0.069980695 C44.3433788,-0.55528941 41.7448417,26.3893581 43.7823896,28.0604488 C45.8199376,29.7315396 80.4101663,20.6675282 79.4181862,22.8143098 C78.4262061,24.9610915 41.206214,33.6655405 40.0611804,36.1136583 C38.9161468,38.5617761 75.5656698,43.6194667 76.8648033,45.8059846 C78.1639367,47.9925024 47.453215,44.6905164 45.8199376,45.8059846 C44.1866603,46.9214527 51.8259706,79.6915741 50.0941699,79.9559604 C48.3623691,80.2203468 40.0611804,46.8490589 38.987524,46.8490589 C37.9138676,46.8490589 11.0084378,65.8468342 9.73668426,64.4087838 C8.46493074,62.9707333 31.9132597,49.4418012 33.7835893,40.9646477 Z" id="Path-8"></path>
            <path d="M30.4378599,49.4142133 C28.4327015,46.5763755 0.11756238,48.7934736 0.11756238,46.5763755 C0.11756238,44.3592774 30.4378599,45.1608812 30.4378599,40.6219836 C30.4378599,36.083086 -0.667780135,30.8747404 0.11756238,28.9418436 C0.902904895,27.0089469 32.0057582,34.9601834 33.5412668,32.983832 C35.0767754,31.0074807 18.4535084,5.58711614 19.9118282,5.08626931 C21.3701481,4.58542247 36.2871881,30.0989382 39.2958253,31.0074807 C42.3044626,31.9160232 62.1607961,8.80715719 64.1548704,9.27304537 C66.1489448,9.73893355 47.7549184,31.0074807 47.7549184,32.983832 C47.7549184,34.9601834 81.2727515,34.4668284 79.8044626,36.1896718 C78.3361736,37.9125152 44.0852927,37.9125152 42.3044626,39.379223 C40.5236324,40.8459307 71.2446017,54.7027429 71.2446017,56.1661438 C71.2446017,57.6295448 45.443858,45.5218388 42.3044626,45.5218388 C39.1650672,45.5218388 31.1084378,77.0953024 28.4327015,77.972973 C25.7569653,78.8506435 32.4430182,52.2520512 30.4378599,49.4142133 Z" id="Path-9"></path>
        </g>
    </g>
</svg>