<?xml version="1.0" encoding="UTF-8"?>
<svg width="164px" height="80px" viewBox="0 0 164 80" version="1.1" xmlns="http://www.w3.org/2000/svg" xmlns:xlink="http://www.w3.org/1999/xlink">
    <!-- Generator: Sketch 50 (54983) - http://www.bohemiancoding.com/sketch -->
    <title>Export/clearThoughts-3</title>
    <desc>Created with Sketch.</desc>
    <defs></defs>
    <g id="Export/clearThoughts-3" stroke="none" stroke-width="1" fill="none" fill-rule="evenodd">
        <g id="Group" transform="translate(43.000000, 0.000000)" stroke="#262B3D" stroke-width="0.5">
            <path d="M7.14162796,58.4343957 C3.98466096,51.9690444 5.02116765,50.7276904 5.02116765,38.9548841 C5.02116765,27.1820778 1.64622191,25.7466246 7.14162796,17.1036838 C12.637034,8.460743 16.1410038,13.5259747 27.9211096,9.45467715 C39.7012154,5.38337956 43.0495274,2.46012643 50.2929951,4.39362583 C57.5364629,6.32712522 56.4391479,12.3243202 62.1006651,18.5782285 C67.7621823,24.8321367 70.0903167,20.6688628 72.156382,27.7566225 C74.2224472,34.8443822 71.6419397,35.9505449 70.1913535,46.3338162 C68.7407672,56.7170876 72.4605857,57.7781851 66.8264094,63.3278146 C61.1922331,68.877444 61.3940857,65.5464455 50.2929951,68.9248758 C39.1919046,72.3033062 40.6835943,75.9128198 33.8120777,74.9875828 C26.9405611,74.0623458 23.1824904,69.1011545 18.6281408,65.7108858 C14.0737913,62.3206171 10.298595,64.899747 7.14162796,58.4343957 Z" id="Path-2"></path>
            <path d="M0.240867821,41.9795116 C0.240867821,32.862751 5.092432,32.0266999 10.7649388,22.6593543 C16.4374455,13.2920087 17.250022,7.55611949 23.0008182,4.3946606 C28.7516144,1.2332017 27.8352835,6.42959477 38.7807485,7.25786424 C49.7262135,8.08613371 54.8757483,3.73148411 60.8376531,7.25786424 C66.7995578,10.7842444 60.3737775,10.0619712 65.7116237,23.1870861 C71.0494699,36.312201 78.3251664,41.872611 77.7941301,48.9517798 C77.2630937,56.0309487 70.5296335,52.2884456 62.9632601,59.8251242 C55.3968868,67.3618028 57.3888226,74.4559707 49.865815,76.7704884 C42.3428075,79.0850061 39.1945394,70.32411 31.287083,69.5705712 C23.3796266,68.8170324 20.7935992,77.832277 15.0748258,73.4550911 C9.35605244,69.0779051 14.0060707,60.7400174 10.7649388,53.8627897 C7.5238068,46.985562 0.240867821,51.0962721 0.240867821,41.9795116 Z" id="Path-3"></path>
            <path d="M3.83432749,61.1951573 C1.18690058,54.5062807 11.153048,48.7635928 10.5817145,38.1684603 C10.0103811,27.5733278 -2.57660105,24.6109434 1.48329286,17.5962334 C5.54318677,10.5815235 18.2349353,15.755838 25.573163,12.2661424 C32.9113907,8.7764468 28.0056627,-1.36043253 37.9346231,0.261796358 C47.8635835,1.88402525 52.6875453,14.7118898 58.1963418,17.5962334 C63.7051384,20.4805771 65.8145459,7.61469961 71.0415963,17.5962334 C76.2686467,27.5777673 76.9052394,37.3539649 73.6046769,47.0198675 C70.3041145,56.6857702 60.004034,54.0056431 56.1541121,61.1951573 C52.3041902,68.3846715 61.2454622,77.3759302 56.1541121,79.6078228 C51.0627621,81.8397155 43.4237213,70.2398034 37.5439849,69.3532699 C31.6642485,68.4667364 30.2216566,77.1216193 25.573163,74.9968957 C20.9246694,72.8721721 25.4242655,64.8322366 19.6955764,61.1951573 C13.9668874,57.558078 6.48175441,67.8840339 3.83432749,61.1951573 Z" id="Path-4"></path>
            <path d="M2.84615182,41.9898593 C3.9781419,33.4854256 11.4920483,30.227381 13.6378537,23.8400248 C15.783659,17.4526686 7.26654186,14.0847701 13.6378537,9.8665149 C20.0091655,5.64825972 26.315202,11.5636166 34.7436391,9.8665149 C43.1720763,8.16941322 45.763242,1.13463011 50.7109111,2.40169702 C55.6585802,3.66876393 48.7820544,8.41655682 56.7809861,15.5101407 C64.7799177,22.6037246 74.6852197,22.1731241 76.9016839,25.6281043 C79.1181482,29.0830845 70.2633258,27.1433218 69.4502217,35.2586921 C68.6371176,43.3740624 76.5563947,46.6827124 74.1821421,52.7711093 C71.8078895,58.8595061 63.2495271,56.4092031 59.5437606,60.6622517 C55.837994,64.9153002 60.1293986,70.8824626 56.7809861,72.7421358 C53.4325736,74.6018089 55.7356387,66.8117646 45.8534101,68.2657285 C35.9711814,69.7196924 31.491411,77.9865798 26.2082717,77.2402732 C20.9251325,76.4939666 24.2698169,67.5954672 19.4022118,64.5291805 C14.5346067,61.4628938 8.50525901,68.6789674 6.02993032,64.5291805 C3.55460163,60.3793936 10.8902984,53.6562148 10.2615868,49.205298 C9.63287517,44.7543813 1.71416173,50.4942929 2.84615182,41.9898593 Z" id="Path-5"></path>
        </g>
    </g>
</svg>