<?xml version="1.0" encoding="UTF-8"?>
<svg width="164px" height="80px" viewBox="0 0 164 80" version="1.1" xmlns="http://www.w3.org/2000/svg" xmlns:xlink="http://www.w3.org/1999/xlink">
    <!-- Generator: Sketch 50 (54983) - http://www.bohemiancoding.com/sketch -->
    <title>Export/confident-Export/confident-3</title>
    <desc>Created with Sketch.</desc>
    <defs></defs>
    <g id="Export/confident-Export/confident-3" stroke="none" stroke-width="1" fill="none" fill-rule="evenodd">
        <g id="Group" transform="translate(49.000000, 0.000000)" stroke="#262B3D" stroke-width="0.5">
            <polyline id="Path" points="65.9330585 79.9404937 65.9330585 0.0838017271 16.7790221 0.0838017271 16.7790221 25.6677864"></polyline>
            <path d="M27.290027,63.9527069 L41.3256226,76.8957286" id="Path-2" stroke-opacity="0.5"></path>
            <path d="M25.290184,40.2949991 L55.3979125,73.2093941" id="Path-3" stroke-opacity="0.5"></path>
            <path d="M28.0586775,13.4333901 L35.4612833,20.634873" id="Path-4" stroke-opacity="0.5"></path>
            <path d="M46.955311,42.1012057 L59.216058,55.6268433" id="Path-5"></path>
            <path d="M0,77.8092199 C3.23338268e-15,72.8727164 3.23338268e-15,65.586467 0,55.9504718 C-4.54196809e-15,41.4964789 5.95155654,40.3805425 10.9227188,40.3805425 C15.8938812,40.3805425 19.1537868,46.8733297 19.1537868,55.9504718 C19.1537868,62.0018998 19.1537868,69.2881492 19.1537868,77.8092199" id="Path-6"></path>
            <path d="M0.88810842,30.8390491 C0.88810842,26.3463482 5.2228441,22.0523139 9.95499188,22.0523139 C14.6871397,22.0523139 18.5145616,26.3463482 18.5145616,30.8390491 C18.5145616,35.3317499 15.2705014,40.3982065 9.95499188,40.3982065 C4.63948239,40.3982065 0.88810842,35.3317499 0.88810842,30.8390491 Z" id="Path-7"></path>
            <path d="M41.2300242,31.0000149 C41.2300242,26.507314 45.5647599,22.2132797 50.2969077,22.2132797 C55.0290555,22.2132797 58.8564774,26.507314 58.8564774,31.0000149 C58.8564774,35.4927157 55.6124172,40.5591723 50.2969077,40.5591723 C44.9813982,40.5591723 41.2300242,35.4927157 41.2300242,31.0000149 Z" id="Path-7" stroke-opacity="0.5"></path>
            <path d="M41.5441522,78.3538446 C41.5441522,68.7661403 41.5441522,60.7514138 41.5441522,54.309665 C41.5441522,44.6470418 44.6056465,40.8383017 49.7572292,40.5135806 C54.9088119,40.1888595 59.2921623,42.4819221 59.8327092,54.309665 C60.1930737,62.1948269 60.1930737,70.6427006 59.8327092,79.653286" id="Path-9" stroke-opacity="0.5"></path>
        </g>
    </g>
</svg>