<?xml version="1.0" encoding="UTF-8"?>
<svg width="164px" height="80px" viewBox="0 0 164 80" version="1.1" xmlns="http://www.w3.org/2000/svg" xmlns:xlink="http://www.w3.org/1999/xlink">
    <!-- Generator: Sketch 50 (54983) - http://www.bohemiancoding.com/sketch -->
    <title>Export/confident-Export/confident-4</title>
    <desc>Created with Sketch.</desc>
    <defs></defs>
    <g id="Export/confident-Export/confident-4" stroke="none" stroke-width="1" fill="none" fill-rule="evenodd">
        <g id="Group" transform="translate(43.000000, 0.000000)" stroke="#262B3D" stroke-width="0.5">
            <polyline id="Path" points="79.9325728 79.9404937 79.9325728 0.0838017271 30.4218916 0.0838017271 30.4218916 25.6677864"></polyline>
            <path d="M41.0091608,63.9527069 L55.1465938,76.8957286" id="Path-2" stroke-opacity="0.5"></path>
            <path d="M38.9948076,40.2949991 L69.3209874,73.2093941" id="Path-3" stroke-opacity="0.5"></path>
            <path d="M41.7833883,13.4333901 L49.2397049,20.634873" id="Path-4" stroke-opacity="0.5"></path>
            <path d="M60.8171293,42.1012057 L73.166836,55.6268433" id="Path-5" stroke-opacity="0.5"></path>
            <path d="M13.5211268,77.8092199 C13.5211268,72.8727164 13.5211268,65.586467 13.5211268,55.9504718 C13.5211268,41.4964789 19.5158657,40.3805425 24.5230971,40.3805425 C29.5303284,40.3805425 32.8138868,46.8733297 32.8138868,55.9504718 C32.8138868,62.0018998 32.8138868,69.2881492 32.8138868,77.8092199" id="Path-6"></path>
            <path d="M14.415679,30.8390491 C14.415679,26.3463482 18.781866,22.0523139 23.5483486,22.0523139 C28.3148312,22.0523139 32.1700237,26.3463482 32.1700237,30.8390491 C32.1700237,35.3317499 28.9024256,40.3982065 23.5483486,40.3982065 C18.1942716,40.3982065 14.415679,35.3317499 14.415679,30.8390491 Z" id="Path-7"></path>
            <path d="M55.0503018,31.0000149 C55.0503018,26.507314 59.4164888,22.2132797 64.1829715,22.2132797 C68.9494541,22.2132797 72.8046465,26.507314 72.8046465,31.0000149 C72.8046465,35.4927157 69.5370484,40.5591723 64.1829715,40.5591723 C58.8288945,40.5591723 55.0503018,35.4927157 55.0503018,31.0000149 Z" id="Path-7" stroke-opacity="0.5"></path>
            <path d="M55.366709,78.3538446 C55.366709,68.7661403 55.366709,60.7514138 55.366709,54.309665 C55.366709,44.6470418 58.4504165,40.8383017 63.6393773,40.5135806 C68.828338,40.1888595 73.2434926,42.4819221 73.7879614,54.309665 C74.1509407,62.1948269 74.1509407,70.6427006 73.7879614,79.653286" id="Path-9" stroke-opacity="0.5"></path>
            <path d="M14.4818913,47.6144366 L0.614939638,39.5661469 C0.258891687,32.8227182 0.258891687,28.9796598 0.614939638,28.0369718 C1.14901156,26.6229398 1.8978311,26.5280193 2.69873049,26.6229398 C3.49962988,26.7178604 4.73390736,27.6252588 4.52818578,28.5007598 C4.3224642,29.3762608 3.67205834,30.3463975 2.40464868,29.8045567 C1.55970891,29.4433294 0.765858798,28.1958897 0.0230983406,26.0622375" id="Path-8"></path>
            <path d="M55.9879681,47.6286579 L42.1210163,39.5803681 C41.7649684,32.8369394 41.7649684,28.9938811 42.1210163,28.0511931 C42.6550883,26.6371611 43.4039078,26.5422405 44.2048072,26.6371611 C45.0057066,26.7320816 46.2399841,27.6394801 46.0342625,28.514981 C45.8285409,29.390482 45.178135,30.3606187 43.9107254,29.8187779 C43.0657856,29.4575507 42.2719355,28.210111 41.5291751,26.0764588" id="Path-8" stroke-opacity="0.5"></path>
        </g>
    </g>
</svg>