<?xml version="1.0" encoding="UTF-8"?>
<svg width="164px" height="80px" viewBox="0 0 164 80" version="1.1" xmlns="http://www.w3.org/2000/svg" xmlns:xlink="http://www.w3.org/1999/xlink">
    <!-- Generator: Sketch 50 (54983) - http://www.bohemiancoding.com/sketch -->
    <title>Export/confident-Export/confident-2</title>
    <desc>Created with Sketch.</desc>
    <defs></defs>
    <g id="Export/confident-Export/confident-2" stroke="none" stroke-width="1" fill="none" fill-rule="evenodd">
        <g id="Group" transform="translate(48.000000, 0.000000)" stroke="#262B3D" stroke-width="0.5">
            <polyline id="Path" points="65.9330585 79.9404937 65.9330585 0.0838017271 16.7790221 0.0838017271 16.7790221 23.2174776"></polyline>
            <path d="M27.290027,63.9527069 L41.3256226,76.8957286" id="Path-2" stroke-opacity="0.5"></path>
            <path d="M25.290184,40.2949991 L55.3979125,73.2093941" id="Path-3" stroke-opacity="0.5"></path>
            <path d="M28.0586775,13.4333901 L35.4612833,20.634873" id="Path-4" stroke-opacity="0.5"></path>
            <path d="M46.955311,42.1012057 L59.216058,55.6268433" id="Path-5" stroke-opacity="0.5"></path>
            <path d="M0.0892667978,79.3153185 C0.0892667978,67.3305675 0.0892667978,56.5201944 0.0892667978,46.8841991 C0.0892667978,32.4302062 6.97030115,31.1751761 10.5047669,31.1751761" id="Path-6"></path>
            <path d="M10.3874092,31.4829122 C10.3874092,26.9902114 14.7221449,22.6961771 19.4542927,22.6961771 C24.1864404,22.6961771 28.0138624,26.9902114 28.0138624,31.4829122 C28.0138624,35.9756131 24.7698022,41.0420697 19.4542927,41.0420697 C14.1387832,41.0420697 10.3874092,35.9756131 10.3874092,31.4829122 Z" id="Path-7"></path>
            <path d="M28.125908,31.4829122 C28.125908,26.9902114 32.4606437,22.6961771 37.1927915,22.6961771 C41.9249392,22.6961771 45.7523612,26.9902114 45.7523612,31.4829122 C45.7523612,35.9756131 42.5083009,41.0420697 37.1927915,41.0420697 C31.877282,41.0420697 28.125908,35.9756131 28.125908,31.4829122 Z" id="Path-7" stroke-opacity="0.5"></path>
            <path d="M45.7675618,31.9744654 C50.9191444,31.6497443 59.3551236,34.1883921 59.8956704,46.016135 C60.256035,53.9012969 60.256035,65.0385494 59.8956704,79.4278924" id="Path-9" stroke-opacity="0.5"></path>
            <path d="M21.7129672,40.709207 L21.7129672,79.521504" id="Path-8"></path>
            <path d="M38.1642762,41.0381036 L38.1642762,78.4519618" id="Path-10" stroke-opacity="0.5"></path>
        </g>
    </g>
</svg>