<?xml version="1.0" encoding="UTF-8"?>
<svg width="164px" height="80px" viewBox="0 0 164 80" version="1.1" xmlns="http://www.w3.org/2000/svg" xmlns:xlink="http://www.w3.org/1999/xlink">
    <!-- Generator: Sketch 50 (54983) - http://www.bohemiancoding.com/sketch -->
    <title>Export/confident-Export/confident-1</title>
    <desc>Created with Sketch.</desc>
    <defs></defs>
    <g id="Export/confident-Export/confident-1" stroke="none" stroke-width="1" fill="none" fill-rule="evenodd">
        <g id="Group" transform="translate(41.000000, 0.000000)" stroke="#262B3D" stroke-width="0.5">
            <polyline id="Path" points="80.932275 79.9404937 80.932275 0.0838017271 31.2029464 0.0838017271 31.2029464 33.658767"></polyline>
            <path d="M41.8369707,63.9527069 L56.036837,76.8957286" id="Path-2" stroke-opacity="0.5"></path>
            <path d="M39.8137218,40.2949991 L70.2738271,73.2093941" id="Path-3" stroke-opacity="0.5"></path>
            <path d="M42.6146174,13.4333901 L50.1038623,20.634873" id="Path-4" stroke-opacity="0.5"></path>
            <path d="M61.7324146,42.1012057 L74.1366596,55.6268433" id="Path-5" stroke-opacity="0.5"></path>
            <path d="M17.8424235,33.8814461 C19.5490827,32.6161186 21.4253177,31.2683186 26.5100165,31.2683186 C31.5947153,31.2683186 35.4559175,38.6315765 36.3136935,46.8841991 C36.8855442,52.3859475 36.8855442,63.1963206 36.3136935,79.3153185" id="Path-6"></path>
            <path d="M0.0366175574,33.700528 C0.0366175574,29.2078271 4.4220864,24.9137928 9.2096186,24.9137928 C13.9971508,24.9137928 17.8693684,29.2078271 17.8693684,33.700528 C17.8693684,38.1932288 14.5873401,43.2596854 9.2096186,43.2596854 C3.8318971,43.2596854 0.0366175574,38.1932288 0.0366175574,33.700528 Z" id="Path-7"></path>
            <path d="M13.8763634,41.7779666 L13.8763634,78.5838854" id="Path-8"></path>
            <path d="M46.2649106,79.4365789 C46.2649106,64.081165 46.2649106,52.9439126 46.2649106,46.0248215 C46.2649106,35.646185 51.4835986,32.6917588 56.6518742,31.9798537 C61.8201498,31.2679486 68.9674131,34.1970787 69.5142865,46.0248215 C69.8788687,53.9099834 69.8788687,65.0472359 69.5142865,79.4365789" id="Path-9" stroke-opacity="0.5"></path>
            <path d="M57.12732,32.1699705 C57.3331094,28.4161783 59.0646625,26.0290913 62.3219793,25.0087097 C67.2079545,23.4781372 71.9341081,24.6231872 74.5332642,27.9452873 C77.1324204,31.2673873 75.9981435,35.6360352 74.9457562,38.3328737 C74.2441647,40.1307659 72.2825699,41.6621467 69.060972,42.9270158" id="Path-10" stroke-opacity="0.5"></path>
        </g>
    </g>
</svg>