<?xml version="1.0" encoding="UTF-8"?>
<svg width="85px" height="58px" viewBox="0 0 85 58" version="1.1" xmlns="http://www.w3.org/2000/svg" xmlns:xlink="http://www.w3.org/1999/xlink">
    <!-- Generator: sketchtool 49.3 (51167) - http://www.bohemiancoding.com/sketch -->
    <title>43B443C9-E4D0-437A-851F-DBAD5289CF3B</title>
    <desc>Created with sketchtool.</desc>
    <defs>
        <circle id="path-1" cx="21" cy="21" r="21"></circle>
        <filter x="-25.0%" y="-17.9%" width="150.0%" height="150.0%" filterUnits="objectBoundingBox" id="filter-2">
            <feOffset dx="0" dy="3" in="SourceAlpha" result="shadowOffsetOuter1"></feOffset>
            <feGaussianBlur stdDeviation="3" in="shadowOffsetOuter1" result="shadowBlurOuter1"></feGaussianBlur>
            <feColorMatrix values="0 0 0 0 0   0 0 0 0 0   0 0 0 0 0  0 0 0 0.23 0" type="matrix" in="shadowBlurOuter1"></feColorMatrix>
        </filter>
    </defs>
    <g id="Slider-experimentation" stroke="none" stroke-width="1" fill="none" fill-rule="evenodd">
        <g id="Battery-up" transform="translate(-145.000000, -537.000000)">
            <g id="Handle-+-curve" transform="translate(145.000000, 537.000000)">
                <path d="M0,15 C15,15 27.5,1.13895005e-13 42.5,0 C57.5,-1.13492549e-13 66,15 85,15 L0,15 Z" id="Slider-curve" fill="#00E9BA"></path>
                <g id="Group" transform="translate(21.500000, 8.000000)">
                    <g id="Oval">
                        <use fill="black" fill-opacity="1" filter="url(#filter-2)" xlink:href="#path-1"></use>
                        <use fill="#768C9A" fill-rule="evenodd" xlink:href="#path-1"></use>
                    </g>
                    <path d="M14.5,12 C15.3284271,12 16,12.6715729 16,13.5 L16,28.5 C16,29.3284271 15.3284271,30 14.5,30 C13.6715729,30 13,29.3284271 13,28.5 L13,13.5 C13,12.6715729 13.6715729,12 14.5,12 Z M20.5,12 C21.3284271,12 22,12.6715729 22,13.5 L22,28.5 C22,29.3284271 21.3284271,30 20.5,30 C19.6715729,30 19,29.3284271 19,28.5 L19,13.5 C19,12.6715729 19.6715729,12 20.5,12 Z M26.5,12 C27.3284271,12 28,12.6715729 28,13.5 L28,28.5 C28,29.3284271 27.3284271,30 26.5,30 C25.6715729,30 25,29.3284271 25,28.5 L25,13.5 C25,12.6715729 25.6715729,12 26.5,12 Z" id="Handle-icon" fill="#FFFFFF"></path>
                </g>
            </g>
        </g>
    </g>
</svg>