<?xml version="1.0" encoding="UTF-8"?>
<svg width="162px" height="80px" viewBox="0 0 162 80" version="1.1" xmlns="http://www.w3.org/2000/svg" xmlns:xlink="http://www.w3.org/1999/xlink">
    <!-- Generator: Sketch 50 (54983) - http://www.bohemiancoding.com/sketch -->
    <title>Export/problems-3</title>
    <desc>Created with Sketch.</desc>
    <defs></defs>
    <g id="Export/problems-3" stroke="none" stroke-width="1" fill="none" fill-rule="evenodd">
        <g id="Group" transform="translate(14.000000, 0.000000)" stroke="#262B3D">
            <path d="M16.605852,51.1466544 L16.605852,33.0036486 L24.8283031,33.0036486 C23.6855348,32.4279151 23.1141506,31.3359277 23.1141506,29.7276862 C23.1141506,27.3153241 25.4345184,26.6666667 27.3809638,26.6666667 C29.3274091,26.6666667 31.1934356,28.0083995 31.1934356,29.7276862 C31.1934356,30.8738774 30.5714268,31.9658648 29.3274091,33.0036486 L38.196285,33.0036486 L38.196285,40.6177784 C39.3752419,38.9254549 40.5793062,38.2687138 41.8084779,38.647555 C43.6522355,39.2158168 44.7627209,40.8765842 44.7627209,42.6416099 C44.7627209,44.4066355 43.276069,45.6431109 41.8084779,46.0819702 C40.8300838,46.3745431 39.6260195,45.8822851 38.196285,44.6051961 L38.196285,51.1466544 L28.9140456,51.1466544 C30.4336389,50.2964138 31.1934356,49.2397396 31.1934356,47.9766318 C31.1934356,46.0819702 29.2017679,44.6051961 27.3809638,44.6051961 C25.5601596,44.6051961 23.8000165,46.669106 23.8000165,47.9766318 C23.8000165,48.8483157 24.2942258,49.9049899 25.2826444,51.1466544 L16.605852,51.1466544 Z" id="Path-3"></path>
            <path d="M0.903098255,54.5340376 L0.903098255,69.8723215 L7.76969653,69.8723215 C6.80603533,70.8228007 6.32420473,71.8716464 6.32420473,73.0188586 C6.32420473,74.739677 8.10699502,75.8618722 9.69975078,75.8618722 C11.2925065,75.8618722 12.8076606,74.1323744 12.8076606,72.5534897 C12.8076606,71.5008999 12.3026092,70.6071772 11.2925065,69.8723215 L18.6065311,69.8723215 L18.6065311,64.6789779 C17.6179519,65.9586613 16.605032,66.4539826 15.5677714,66.164942 C14.0118804,65.731381 12.6805116,64.6620214 12.8076606,63.0630782 C12.9348096,61.464135 14.3876108,60.0263099 16.0559194,60.0263099 C17.1681251,60.0263099 18.018329,60.6035749 18.6065311,61.7581051 L18.9435735,54.5340376 L0.903098255,54.5340376 Z" id="Path-4"></path>
            <path d="M59.7469591,23.4875745 L54.501801,40.257959 L60.3234654,41.7737904 C59.1355451,42.465079 58.396835,43.4463615 58.1073349,44.7176381 C57.6730849,46.624553 58.541585,48.2774731 60.3234654,48.76428 C62.1053459,49.2510868 64.1735856,47.9744547 64.8471582,46.5589469 C65.2962065,45.6152751 64.9970686,44.3658672 63.9497444,42.8107232 L69.8123866,44.7176381 L71.4115452,39.0272714 C71.8928635,40.4544368 72.8235718,41.3699431 74.2036698,41.7737904 C76.2738169,42.3795614 78.0275995,41.4327626 78.5675491,39.5380795 C79.1074987,37.6433964 78.201054,35.0628285 76.2738169,34.5096445 C74.9889922,34.1408552 73.6686535,34.4840318 72.3128006,35.5391744 L74.2036698,28.5027351 L59.7469591,23.4875745 Z" id="Path-6"></path>
            <path d="M79.8547642,0.122378831 L76.3027575,6.16962199 C78.0124753,5.93351108 79.1964775,6.29915201 79.8547642,7.26654478 C80.8421942,8.71763394 80.7822432,10.116358 79.8547642,11.3895143 C78.9272851,12.6626705 77.2045252,13.2974503 75.9173101,12.6715125 C75.0591667,12.2542206 74.5022102,11.4590346 74.2464404,10.2859543 L71.1008822,15.4205843 L80.2763233,20.7178253 C78.9129578,20.7273556 77.9580044,21.3904787 77.411463,22.7071944 C76.591651,24.6822681 77.6899919,27.4030032 79.4849396,28.1445822 C81.2798873,28.8861613 83.8562461,27.5140495 84.5925659,25.7886361 C85.0834458,24.6383606 84.9631588,23.3230914 84.2317052,21.8428285 L92.6080792,25.7886361 L95.7879562,20.3285287 C95.9588631,22.3479431 96.7038906,23.4960062 98.023039,23.7727182 C100.001761,24.1877862 102.10509,23.6858234 103.006964,21.8428285 C103.908837,19.9998336 103.006964,17.7400258 101.362986,16.903485 C100.267,16.3457911 98.9220748,16.3457911 97.3282092,16.903485 L100.84308,10.8835564 L79.8547642,0.122378831 Z" id="Path-7"></path>
            <path d="M126.377882,46.4642394 L107.674335,38.2540391 L110.147601,32.5899658 C108.129425,33.6610166 106.646029,33.6610166 105.697412,32.5899658 C104.274487,30.9833898 104.250537,28.8534737 105.278414,27.0923328 C106.306291,25.3311919 108.505071,24.5163597 110.147601,24.9651144 C111.242621,25.2642842 111.898778,26.5960613 112.116072,28.9604457 L114.896928,22.5397331 L123.321194,26.178188 C122.770897,24.6053448 122.770897,23.3925265 123.321194,22.5397331 C124.146641,21.260543 125.560856,20.3363844 127.581605,21.260543 C129.602353,22.1847015 130.581179,24.1666097 130.14912,25.6127507 C129.86108,26.5768446 128.731373,27.197762 126.76,27.4755027 L133.909345,30.3129002 L130.998897,37.2262962 C130.594324,34.9153311 129.719875,33.6141872 128.37555,33.3228645 C126.359062,32.8858803 124.478575,33.6142573 123.75351,35.1646838 C123.028445,36.7151104 124.240634,38.8102864 125.72992,39.6049619 C126.722778,40.1347456 127.997956,40.2617882 129.555454,39.9860896 L126.377882,46.4642394 Z" id="Path-8"></path>
            <path d="M0.18075355,1.12371432 L0.18075355,20.8856747 L12.4267368,20.8856747 C10.7546602,19.821943 9.91862193,18.5235446 9.91862193,16.9904795 C9.91862193,14.6908818 11.9376613,12.8714927 14.3344179,12.8714927 C16.7311745,12.8714927 18.9276845,14.7979347 18.9276845,16.9904795 C18.9276845,18.452176 18.1081829,19.7505744 16.4691796,20.8856747 L29.6669576,20.8856747 L41.4700315,20.8856747 C39.9902574,22.0136382 39.2503703,23.3640337 39.2503703,24.9368613 C39.2503703,27.2961027 42.0338529,28.5399552 44.3893462,28.5399552 C46.7448396,28.5399552 48.6471065,27.0636451 48.6471065,24.9368613 C48.6471065,23.5190055 47.9130157,22.1686099 46.4448343,20.8856747 L59.6165288,20.8856747 L59.6165288,12.8714927 C58.5486365,14.6930908 57.1530799,15.6038899 55.4298591,15.6038899 C52.8450279,15.6038899 50.7399183,13.1618468 51.0130402,11.103591 C51.2861621,9.04533513 53.3416387,7.25733418 55.4298591,7.25733418 C56.822006,7.25733418 58.2175626,7.84272648 59.6165288,9.01351107 L59.6165288,1.12371432 L0.18075355,1.12371432 Z" id="Path-2"></path>
            <path d="M29.6833238,20.9162613 L29.6833238,13.9445703 C31.3694137,15.4327752 32.8066614,16.1768776 33.9950667,16.1768776 C35.7776746,16.1768776 38.5328222,14.8523462 38.2837437,12.3428554 C38.0346652,9.83336468 36.0619594,8.16884055 33.9835337,7.68554567 C32.5979166,7.36334909 31.1645133,8.24916913 29.6833238,10.3430058 L29.6833238,1.37707278" id="Path-10"></path>
            <path d="M59.6084605,79.9968447 L91.1805455,79.9968447 L109.207306,79.9968447 L109.207306,63.7597637 L102.393754,63.7597637 C103.922201,62.3811014 104.686425,61.0633329 104.686425,59.8064583 C104.686425,57.9211464 102.875848,56.6610753 100.667276,56.6610753 C98.4587042,56.6610753 96.5639439,57.9393666 96.5639439,59.8064583 C96.5639439,61.0511861 97.112017,62.3689546 98.208163,63.7597637 L75.6990059,63.7597637 C77.2290564,65.2186588 77.9940817,66.5412221 77.9940817,67.7274534 C77.9940817,69.5068004 76.6831579,70.5367216 74.4627147,70.5367216 C72.2422716,70.5367216 70.7302701,69.5509125 70.7302701,67.7274534 C70.7302701,66.511814 71.3745525,65.1892508 72.6631174,63.7597637 L59.6084605,63.7597637 L59.6084605,70.5367216 C58.3843559,69.0743103 57.1985748,68.3431046 56.051117,68.3431046 C54.3299304,68.3431046 52.75402,69.0383493 52.75402,71.1902516 C52.75402,73.342154 54.8683772,74.6078686 56.051117,74.8894331 C56.8396102,75.0771428 58.0253914,74.5455602 59.6084605,73.2946855 L59.6084605,79.9968447 Z" id="Path-5"></path>
            <path d="M86.1699587,63.9525143 L86.1699587,69.6415341 C87.6678172,68.8823588 88.9593982,68.5027712 90.0447016,68.5027712 C91.6726567,68.5027712 92.6150281,69.6415341 92.6150281,71.8869348 C92.6150281,74.1323355 91.2729066,74.4871501 89.7155532,74.4871501 C88.6773177,74.4871501 87.4954528,73.8921165 86.1699587,72.7020493 L86.1699587,79.8213553" id="Path-9"></path>
        </g>
    </g>
</svg>