<?xml version="1.0" encoding="UTF-8"?>
<svg width="162px" height="80px" viewBox="0 0 162 80" version="1.1" xmlns="http://www.w3.org/2000/svg" xmlns:xlink="http://www.w3.org/1999/xlink">
    <!-- Generator: Sketch 50 (54983) - http://www.bohemiancoding.com/sketch -->
    <title>Export/problems-1</title>
    <desc>Created with Sketch.</desc>
    <defs></defs>
    <g id="Export/problems-1" stroke="none" stroke-width="1" fill="none" fill-rule="evenodd">
        <g id="Group" transform="translate(16.000000, 0.000000)" stroke="#262B3D">
            <path d="M0.198574242,20.4813557 L4.52423774,13.3401309 C5.01983792,14.3341634 5.7545821,14.8661338 6.72847027,14.936042 C8.18930254,15.0409043 8.96047473,14.2332587 9.48940388,13.0481163 C10.018333,11.8629739 9.64803965,10.7307999 8.84126449,9.92683835 C8.30341439,9.39086401 7.36527244,9.28112684 6.02683866,9.59762684 L10.5499956,1.64593208 L17.8399804,5.02298647 C17.3370908,3.66756609 17.3370908,2.54188129 17.8399804,1.64593208 C18.5943147,0.302008248 20.5117193,-0.18399886 22.1812758,0.302008248 C23.8508324,0.788015356 24.5153251,2.56463233 24.1662261,3.97207862 C23.9334935,4.91037615 23.0952414,5.67067525 21.6514699,6.25297591 L28.4457058,9.31443208 L18.8349329,27.9310843 L11.2685724,24.1922232 C12.5291527,24.0532937 13.3532257,23.5205858 13.7407914,22.5940998 C14.32214,21.2043707 13.6191707,19.479854 12.0702661,18.6971204 C10.5213615,17.9143867 9.08458353,18.2235542 8.11254807,19.534989 C7.46452442,20.409279 7.39407616,21.5868456 7.90120327,23.0676889 L0.198574242,20.4813557 Z" id="Path"></path>
            <path d="M35.9213419,11.4153746 L40.0621415,30.4823257 L46.621549,29.0807416 C46.3378598,30.2517057 46.3945654,31.2441927 46.7916659,32.0582026 C47.3873167,33.2792175 48.7103911,33.7644799 50.2263838,33.4547172 C51.7423766,33.1449546 52.5923134,32.2387718 52.5923134,30.4823257 C52.5923134,29.3113617 51.9106377,28.4753037 50.5472861,27.9741516 L57.66199,26.3673753 L55.9586463,19.2822059 C55.7529273,20.2922348 55.0810784,20.9155366 53.9430995,21.1521112 C52.2361312,21.5069732 50.7667767,19.9427183 50.5472861,18.4382621 C50.3277956,16.9338058 51.2415274,15.7420353 52.5923134,15.4096237 C53.4928375,15.1880161 54.4131763,15.5431194 55.3533298,16.4749339 L53.9430995,8.34473222 L47.4636759,9.38324665 C48.3050779,8.67899449 48.5828066,7.60901724 48.2968621,6.1733149 C47.8679452,4.01976138 46.621549,3.45487905 44.1565457,3.45487905 C41.6915423,3.45487905 40.940184,5.81661262 40.7227943,7.19396553 C40.5778679,8.1122008 41.3766601,9.05672911 43.119171,10.0275505 L35.9213419,11.4153746 Z" id="Path-2"></path>
            <path d="M21.9993045,53.4450337 L21.9993045,36.2880608 L29.7572628,36.2880608 C28.6790504,35.7436172 28.1399442,34.7109769 28.1399442,33.1901399 C28.1399442,30.9088843 30.3292325,30.29548 32.1657216,30.29548 C34.0022108,30.29548 35.7628239,31.5642927 35.7628239,33.1901399 C35.7628239,34.274038 35.1759528,35.3066783 34.0022108,36.2880608 L42.3700767,36.2880608 L42.3700767,43.4883792 C43.4824334,41.8880298 44.6184791,41.2669811 45.7782139,41.6252331 C47.5178161,42.1626111 48.5655694,43.7331195 48.5655694,45.4022198 C48.5655694,47.0713202 47.1628996,48.2405958 45.7782139,48.6556041 C44.8550901,48.9322762 43.7190444,48.4667714 42.3700767,47.2590894 L42.3700767,53.4450337 L33.6121985,53.4450337 C35.0459487,52.6410018 35.7628239,51.6417555 35.7628239,50.4472949 C35.7628239,48.6556041 33.8836671,47.2590894 32.1657216,47.2590894 C30.4477762,47.2590894 28.787065,49.2108303 28.787065,50.4472949 C28.787065,51.2716047 29.253356,52.2708509 30.1859381,53.4450337 L21.9993045,53.4450337 Z" id="Path-3"></path>
            <path d="M5.42184895,59.8311008 L5.42184895,74.3357823 L11.9005476,74.3357823 C10.9913244,75.234605 10.5367128,76.2264482 10.5367128,77.311312 C10.5367128,78.9386076 12.2187918,79.9998139 13.7215715,79.9998139 C15.2243512,79.9998139 16.653913,78.3643106 16.653913,76.8712348 C16.653913,75.875851 16.1773924,75.0307002 15.2243512,74.3357823 L22.1252007,74.3357823 L22.1252007,69.4246857 C21.1924671,70.634821 20.2367678,71.1032227 19.2581029,70.8298908 C17.7901055,70.4198929 16.5339468,69.4086506 16.653913,67.8966065 C16.7738793,66.3845624 18.1446106,65.02488 19.718675,65.02488 C20.7680514,65.02488 21.5702266,65.570772 22.1252007,66.6625559 L22.4432033,59.8311008 L5.42184895,59.8311008 Z" id="Path-4"></path>
            <path d="M49.3306121,59.5001377 L49.3306121,64.9261463 C48.6668985,63.9003457 47.751312,63.3874454 46.5838527,63.3874454 C44.8326636,63.3874454 43.7690762,65.1882588 43.8890465,66.5179557 C44.0090169,67.8476526 45.2432156,69.4751388 46.9349604,69.4751388 C48.0627902,69.4751388 48.8613408,69.0742494 49.3306121,68.2724706 L49.3306121,72.8072203 L59.2988817,72.8072203 C57.9645274,71.8176302 57.2973502,70.7069363 57.2973502,69.4751388 C57.2973502,67.6274425 58.7036976,67.0627132 60.3075008,66.915546 C61.9113041,66.7683787 63.8857549,67.7580414 63.8857549,69.4751388 C63.8857549,70.6198704 63.2506357,71.7305643 61.9803974,72.8072203 L70.4782675,72.8072203 L70.4782675,67.7580414 C71.7207974,68.8638267 72.9470566,69.3129967 74.1570452,69.1055513 C75.972028,68.7943832 77.0579731,67.9649235 77.0579731,65.6761845 C77.0579731,63.3874454 75.3154832,61.9025774 73.6512857,61.9025774 C72.5418208,61.9025774 71.484148,62.3975334 70.4782675,63.3874454 L70.4782675,59.5001377 L61.9803974,59.5001377 C62.5548641,60.2193568 62.8420975,61.0201701 62.8420975,61.9025774 C62.8420975,63.2261884 61.2116508,64.6454254 59.2988817,64.4935526 C57.3861126,64.3416799 56.6810995,63.0409161 56.1210306,61.9025774 C55.7476514,61.143685 55.9880059,60.3428717 56.8420942,59.5001377 L49.3306121,59.5001377 Z" id="Path-5"></path>
            <path d="M60.9415729,30.4719454 L55.992718,46.330896 L61.485512,47.7643453 C60.3646982,48.4180638 59.6677184,49.3460158 59.3945724,50.5482013 C58.9848536,52.3514795 59.8042913,53.9145669 61.485512,54.3749169 C63.1667326,54.8352669 65.1181357,53.6280169 65.7536576,52.289439 C66.1773389,51.3970536 65.8950995,50.2155483 64.9069395,48.7449231 L70.4383964,50.5482013 L71.9472172,45.1670936 C72.4013455,46.5166956 73.2794773,47.3824462 74.5816125,47.7643453 C76.5348153,48.3371939 78.1895253,47.4418516 78.6989727,45.6501404 C79.2084202,43.8584292 78.3531812,41.4181096 76.5348153,40.8949899 C75.3225714,40.5462435 74.0768196,40.8707692 72.79756,41.8685671 L74.5816125,35.2145429 L60.9415729,30.4719454 Z" id="Path-6"></path>
            <path d="M79.913472,8.37659737 L76.562121,14.095186 C78.1752554,13.8719072 79.2923724,14.2176764 79.913472,15.1324934 C80.8451213,16.504719 80.788557,17.8274255 79.913472,19.0313885 C79.038387,20.2353515 77.4129471,20.8356323 76.1984478,20.2437129 C75.3887817,19.8490999 74.863288,19.0971305 74.6219669,17.9878046 L71.6541038,22.8433786 L80.3112169,27.8527261 C79.024869,27.8617385 78.1238617,28.4888222 77.6081949,29.7339774 C76.8346946,31.6017101 77.8709894,34.1745791 79.564539,34.8758549 C81.2580887,35.5771308 83.688907,34.2795903 84.3836315,32.6479494 C84.8467811,31.5601888 84.7332893,30.3164016 84.043156,28.9165878 L91.946342,32.6479494 L94.9465852,27.484587 C95.1078374,29.3942505 95.8107778,30.4799189 97.0554063,30.7415922 C98.9223492,31.1341022 100.906859,30.6594199 101.757785,28.9165878 C102.608711,27.1737557 101.757785,25.0367636 100.206677,24.2456869 C99.1726044,23.7183025 97.9036549,23.7183025 96.399828,24.2456869 L99.7161408,18.5529283 L79.913472,8.37659737 Z" id="Path-7"></path>
            <path d="M123.808461,52.1998786 L106.161493,44.4358848 L108.495042,39.0796416 C106.590874,40.0924831 105.191276,40.0924831 104.296248,39.0796416 C102.953705,37.5603794 102.931108,35.5462197 103.900919,33.880793 C104.870731,32.2153663 106.9453,31.4448184 108.495042,31.8691843 C109.528203,32.1520949 110.147294,33.4114928 110.352312,35.647378 L112.976075,29.5756172 L120.924449,33.0163299 C120.405238,31.5289674 120.405238,30.3820631 120.924449,29.5756172 C121.703265,28.3659482 123.03759,27.4920157 124.944185,28.3659482 C126.85078,29.2398808 127.774311,31.1140766 127.366659,32.4816229 C127.094891,33.3933205 126.029002,33.9804923 124.168993,34.2431385 L130.914466,36.9263295 L128.168432,43.4639975 C127.786713,41.2786284 126.961662,40.0481988 125.693279,39.7727088 C123.790704,39.3594738 122.016448,40.048265 121.332343,41.5144293 C120.648237,42.9805935 121.791948,44.9619013 123.197104,45.7133879 C124.133874,46.214379 125.337016,46.3345171 126.80653,46.0738021 L123.808461,52.1998786 Z" id="Path-8"></path>
            <path d="M91.8436435,68.4716278 L91.8436435,74.8168978 L110.588156,75.3557087 L111.223195,59.470928 L104.795483,59.470928 C106.68557,58.1168532 107.541309,56.7919547 107.362701,55.4962325 C107.09479,53.5526491 105.94863,52.1709453 103.771882,52.0451394 C101.595134,51.9193335 99.7951738,53.3886028 99.176068,55.0230832 C98.7633308,56.1127367 99.3576928,57.5953517 100.959154,59.470928 L91.8436435,59.470928 L91.8436435,64.4134069 C93.6847126,63.1330467 95.1154021,62.6940156 96.1357119,63.0963138 C97.6661767,63.699761 98.5936298,64.9484423 98.4871429,66.4631573 C98.380656,67.9778723 97.1610045,69.578942 95.6799726,69.578942 C94.6926181,69.578942 93.4138417,69.2098372 91.8436435,68.4716278 Z" id="Path-9"></path>
        </g>
    </g>
</svg>