<?xml version="1.0" encoding="UTF-8"?>
<svg width="162px" height="80px" viewBox="0 0 162 80" version="1.1" xmlns="http://www.w3.org/2000/svg" xmlns:xlink="http://www.w3.org/1999/xlink">
    <!-- Generator: Sketch 50 (54983) - http://www.bohemiancoding.com/sketch -->
    <title>Export/problems-2</title>
    <desc>Created with Sketch.</desc>
    <defs></defs>
    <g id="Export/problems-2" stroke="none" stroke-width="1" fill="none" fill-rule="evenodd">
        <g id="Group" transform="translate(11.000000, 0.000000)" stroke="#262B3D">
            <path d="M17.4733219,53.936472 L17.4733219,34.8038476 L26.125304,34.8038476 C24.9228389,34.1967105 24.3216063,33.0451601 24.3216063,31.3491964 C24.3216063,28.8052508 26.7631873,28.1212121 28.8113126,28.1212121 C30.859438,28.1212121 32.8229434,29.5361304 32.8229434,31.3491964 C32.8229434,32.5579071 32.1684416,33.7094574 30.859438,34.8038476 L40.1916134,34.8038476 L40.1916134,42.8332936 C41.4321575,41.0486616 42.6991207,40.3560982 43.9925028,40.7556034 C45.9325761,41.3548613 47.101072,43.1062161 47.101072,44.9675159 C47.101072,46.8288156 45.5367591,48.1327351 43.9925028,48.5955322 C42.9629986,48.9040636 41.6960355,48.3849552 40.1916134,47.0382068 L40.1916134,53.936472 L30.4244808,53.936472 C32.0234559,53.0398545 32.8229434,51.9255435 32.8229434,50.593539 C32.8229434,48.5955322 30.7272334,47.0382068 28.8113126,47.0382068 C26.8953919,47.0382068 25.043301,49.2146936 25.043301,50.593539 C25.043301,51.5127693 25.5633272,52.6270803 26.6033796,53.936472 L17.4733219,53.936472 Z" id="Path-3"></path>
            <path d="M0.950275029,57.5086215 L0.950275029,73.683539 L8.17557619,73.683539 C7.16157448,74.6858625 6.65457363,75.791918 6.65457363,77.0017055 C6.65457363,78.8163867 8.53049476,79.9997925 10.2064542,79.9997925 C11.8824136,79.9997925 13.4767175,78.1759585 13.4767175,76.5109528 C13.4767175,75.400949 12.9452829,74.4584778 11.8824136,73.683539 L19.5785141,73.683539 L19.5785141,68.2069222 C18.5382927,69.5564064 17.472459,70.0787453 16.3810131,69.7739388 C14.7438443,69.3167291 13.3429264,68.1890407 13.4767175,66.5028824 C13.6105086,64.8167242 15.1392024,63.3004722 16.8946614,63.3004722 C18.0649674,63.3004722 18.959585,63.9092245 19.5785141,65.126729 L19.9331632,57.5086215 L0.950275029,57.5086215 Z" id="Path-4"></path>
            <path d="M49.9190658,57.1395475 L49.9190658,63.1903692 C49.1788661,62.0464461 48.1577678,61.4744846 46.8557709,61.4744846 C44.9027756,61.4744846 43.7166208,63.4826644 43.8504165,64.9654779 C43.9842122,66.4482913 45.3606394,68.2631851 47.2473402,68.2631851 C48.5051407,68.2631851 49.3957159,67.8161327 49.9190658,66.9220278 L49.9190658,71.9789609 L61.0360746,71.9789609 C59.5479499,70.8754179 58.8038875,69.636826 58.8038875,68.2631851 C58.8038875,66.2027238 60.3723018,65.572965 62.1609266,65.4088512 C63.9495515,65.2447375 66.1515372,66.3483613 66.1515372,68.2631851 C66.1515372,69.5397343 65.4432272,70.7783262 64.0266071,71.9789609 L73.5037682,71.9789609 L73.5037682,66.3483613 C74.8894867,67.5814795 76.2570595,68.082372 77.6064867,67.851039 C79.6306274,67.5040394 80.8417163,66.5790662 80.8417163,64.0267754 C80.8417163,61.4744846 78.8984226,59.8186318 77.0424438,59.8186318 C75.8051245,59.8186318 74.625566,60.3705827 73.5037682,61.4744846 L73.5037682,57.1395475 L64.0266071,57.1395475 C64.6672751,57.9415858 64.9876091,58.8346139 64.9876091,59.8186318 C64.9876091,61.2946586 63.1692704,62.8773229 61.0360746,62.7079617 C58.9028788,62.5386006 58.1166203,61.0880519 57.4920093,59.8186318 C57.075602,58.9723517 57.3436549,58.0793236 58.296168,57.1395475 L49.9190658,57.1395475 Z" id="Path-5"></path>
            <path d="M62.8680689,24.7687149 L57.34891,42.4538477 L63.4746913,44.0523608 C62.2247154,44.781356 61.4474159,45.8161631 61.1427927,47.156782 C60.685858,49.1677104 61.5997275,50.9107898 63.4746913,51.4241498 C65.349655,51.9375097 67.5259371,50.5912431 68.2346963,49.0985259 C68.7072024,48.103381 68.3924379,46.7858236 67.2904027,45.1458536 L73.4593024,47.156782 L75.141999,41.1560316 C75.6484609,42.6610424 76.6277882,43.6264855 78.0799809,44.0523608 C80.2582701,44.6911738 82.1036682,43.6927315 82.6718241,41.694702 C83.23998,39.6966726 82.2861836,36.9753465 80.2582701,36.3919888 C78.9063277,36.0030837 77.517016,36.364979 76.090335,37.4776748 L78.0799809,30.0574297 L62.8680689,24.7687149 Z" id="Path-6"></path>
            <path d="M84.0262817,0.12905404 L80.2887224,6.50614683 C82.0877538,6.25715714 83.3336069,6.64274212 84.0262817,7.66290177 C85.0652939,9.19314124 85.0022112,10.6681594 84.0262817,12.0107605 C83.0503523,13.3533616 81.2375974,14.0227657 79.8831397,13.3626859 C78.980168,12.9226326 78.3941167,12.0840728 78.1249858,10.8470064 L74.8151074,16.261707 L84.4698626,21.8478885 C83.0352765,21.8579386 82.0304375,22.557232 81.4553454,23.9457687 C80.5927074,26.0285737 81.7484243,28.8977124 83.6371379,29.6797413 C85.5258515,30.4617701 88.2367963,29.0148158 89.0115805,27.195289 C89.5281034,25.9822712 89.4015328,24.59526 88.6318689,23.0342555 L97.4458146,27.195289 L100.791805,21.4373576 C100.971639,23.5669218 101.755586,24.7776066 103.143645,25.069412 C105.225734,25.50712 107.438938,24.9777774 108.387924,23.0342555 C109.336911,21.0907336 108.387924,18.7076636 106.658067,17.8254933 C105.504829,17.2373797 104.089646,17.2373797 102.412519,17.8254933 L106.111002,11.4772049 L84.0262817,0.12905404 Z" id="Path-7"></path>
            <path d="M132.979712,48.9986524 L113.299113,40.3406231 L115.90158,34.3676004 C113.777977,35.497072 112.21709,35.497072 111.218919,34.3676004 C109.721662,32.6733928 109.696461,30.4272996 110.778033,28.5700964 C111.859605,26.7128933 114.173246,25.8536156 115.90158,26.3268479 C117.053802,26.6423361 117.744236,28.0467556 117.972881,30.5401064 L120.899006,23.7691731 L129.763346,27.6060891 C129.184302,25.9474545 129.184302,24.6684825 129.763346,23.7691731 C130.631913,22.4202089 132.120006,21.4456417 134.246315,22.4202089 C136.372625,23.3947761 137.402584,25.4847885 136.947954,27.0098098 C136.644868,28.0264907 135.456147,28.6812763 133.381791,28.9741665 L140.904609,31.9663311 L137.842123,39.2568215 C137.416415,36.8198038 136.496286,35.4476883 135.081735,35.1404752 C132.959908,34.6796556 130.981187,35.4477622 130.218246,37.0827575 C129.455304,38.7177528 130.730816,40.9272111 132.297901,41.7652326 C133.342625,42.3239135 134.684417,42.4578857 136.323276,42.1671491 L132.979712,48.9986524 Z" id="Path-8"></path>
            <path d="M97.3312813,67.1441183 L97.3312813,74.2200558 L118.235904,74.8209115 L118.944124,57.1069742 L111.775685,57.1069742 C113.883585,55.5969757 114.837939,54.1195131 114.638749,52.6745865 C114.339964,50.5071966 113.06172,48.9663875 110.634125,48.8260949 C108.20653,48.6858022 106.199143,50.3242601 105.508691,52.1469534 C105.04839,53.3620822 105.711246,55.0154225 107.497259,57.1069742 L97.3312813,57.1069742 L97.3312813,62.6185871 C99.3845144,61.1907914 100.980076,60.7012053 102.117966,61.1498287 C103.824801,61.8227638 104.859133,63.2152326 104.740375,64.9043693 C104.621616,66.5935061 103.261413,68.3789414 101.609707,68.3789414 C100.508571,68.3789414 99.0824285,67.9673337 97.3312813,67.1441183 Z" id="Path-9"></path>
            <path d="M0.190195899,1.18500783 L0.190195899,22.0248933 L13.0758947,22.0248933 C11.3164708,20.9031399 10.4367589,19.5339197 10.4367589,17.9172329 C10.4367589,15.4922026 12.5612705,13.5735741 15.0832308,13.5735741 C17.6051911,13.5735741 19.9164441,15.6050947 19.9164441,17.9172329 C19.9164441,19.4586583 19.0541327,20.8278785 17.3295099,22.0248933 L31.2167241,22.0248933 L43.6363764,22.0248933 C42.0793007,23.2143821 41.3007628,24.6384355 41.3007628,26.2970537 C41.3007628,28.7849811 44.2296511,30.09668 46.7081927,30.09668 C49.1867342,30.09668 51.1883732,28.5398439 51.1883732,26.2970537 C51.1883732,24.8018603 50.4159345,23.3778068 48.871057,22.0248933 L62.7308251,22.0248933 L62.7308251,13.5735741 C61.6071473,15.4945321 60.1386886,16.4550111 58.3254488,16.4550111 C55.605589,16.4550111 53.3905111,13.8797657 53.6779005,11.7092414 C53.96529,9.53871705 56.1281422,7.65318877 58.3254488,7.65318877 C59.7903198,7.65318877 61.2587786,8.27051156 62.7308251,9.50515713 L62.7308251,1.18500783 L0.190195899,1.18500783 Z" id="Path-2"></path>
            <path d="M31.2339452,22.0571482 L31.2339452,14.7051833 C33.0081145,16.2745629 34.5204422,17.0592528 35.7709284,17.0592528 C37.6466576,17.0592528 40.5457308,15.6624742 40.2836407,13.0161021 C40.0215507,10.36973 37.9457931,8.61441367 35.758793,8.10475725 C34.3007928,7.76498631 32.7925103,8.69912381 31.2339452,10.9071698 L31.2339452,1.45218584" id="Path-10"></path>
        </g>
    </g>
</svg>