<?xml version="1.0" encoding="UTF-8"?>
<svg width="162px" height="80px" viewBox="0 0 162 80" version="1.1" xmlns="http://www.w3.org/2000/svg" xmlns:xlink="http://www.w3.org/1999/xlink">
    <!-- Generator: Sketch 50 (54983) - http://www.bohemiancoding.com/sketch -->
    <title>Export/problems-5</title>
    <desc>Created with Sketch.</desc>
    <defs></defs>
    <g id="Export/problems-5" stroke="none" stroke-width="1" fill="none" fill-rule="evenodd">
        <g id="Group" transform="translate(30.000000, 0.000000)" stroke="#262B3D">
            <path d="M4.14066047,54.3458487 L4.7985475,69.6166051 L15.3431558,69.5632294 C14.3896549,70.5055849 13.9129045,71.5454661 13.9129045,72.6828731 C13.9129045,74.3889836 15.6768981,75.5015874 17.2528607,75.5015874 C18.8288233,75.5015874 20.3280025,73.7868717 20.3280025,72.2214817 C20.3280025,71.1778884 19.8282761,70.2918043 18.8288233,69.5632294 L26.065733,69.5632294 L26.065733,64.4142735 C25.0875768,65.6830193 24.0853365,66.1741072 23.0590122,65.887537 C21.5195257,65.4576817 20.202194,64.3974618 20.3280025,62.8121848 C20.4538109,61.2269078 21.8912945,59.8013718 23.5420134,59.8013718 C24.6424927,59.8013718 25.4837325,60.373703 26.065733,61.5183654 L26.3992218,54.3560421 L4.14066047,54.3458487 Z" id="Path-4" transform="translate(15.269941, 64.923718) rotate(-33.000000) translate(-15.269941, -64.923718) "></path>
            <path d="M7.48141189,0.202429009 L7.48141189,19.7954838 L19.5982804,19.7954838 C17.9438332,18.7408438 17.1166097,17.4535428 17.1166097,15.9335808 C17.1166097,13.6536378 19.1143614,11.849799 21.485848,11.849799 C23.8573346,11.849799 26.0306858,13.7597757 26.0306858,15.9335808 C26.0306858,17.3827842 25.2198245,18.6700852 23.598102,19.7954838 L36.65673,19.7954838 L48.335359,19.7954838 C46.8711867,20.9138065 46.1391006,22.2526602 46.1391006,23.8120448 C46.1391006,26.1511218 48.8932357,27.384343 51.2238941,27.384343 C53.5545525,27.384343 55.4367629,25.9206509 55.4367629,23.8120448 C55.4367629,22.4063074 54.710412,21.0674537 53.2577103,19.7954838 L66.2905298,19.7954838 L66.2905298,11.849799 C65.2338967,13.6558279 63.8530542,14.5588424 62.148002,14.5588424 C59.5904238,14.5588424 57.5075093,12.1376715 57.7777516,10.0970076 C58.0479938,8.05634366 60.0817986,6.28362477 62.148002,6.28362477 C63.5254709,6.28362477 64.9063135,6.86401371 66.2905298,8.02479161 L66.2905298,0.202429009 L7.48141189,0.202429009 Z" id="Path-2"></path>
            <path d="M36.6729237,19.8258089 L36.6729237,12.9137051 C38.3412364,14.3891902 39.7633305,15.1269328 40.9392059,15.1269328 C42.7030191,15.1269328 45.4291179,13.8137221 45.1826656,11.32568 C44.9362132,8.83763791 42.9843066,7.18734049 40.9277946,6.70817633 C39.5567866,6.38873357 38.1384963,7.2669825 36.6729237,9.34292313 L36.6729237,0.453622019" id="Path-10"></path>
            <path d="M36.8588518,57.0964324 L71.1111215,57.0964324 L88.9478175,57.0964324 L88.9478175,39.9244217 L82.8511355,39.9244217 C83.9334467,39.2733483 84.4746022,38.3247455 84.4746022,37.0786134 C84.4746022,35.2094153 82.683115,33.960114 80.4978291,33.960114 C78.3125433,33.960114 76.4377604,35.2274797 76.4377604,37.0786134 C76.4377604,38.3127025 76.8921857,39.2613053 77.8010365,39.9244217 C72.7393092,39.9785374 68.9158109,39.9785374 66.3305414,39.9244217 C63.745272,39.870306 59.3625402,39.870306 53.1823459,39.9244217 C54.3492742,40.9427384 54.9327383,42.0399431 54.9327383,43.2160357 C54.9327383,44.9801746 53.4586478,46.1236943 51.2616158,46.1236943 C49.0645837,46.1236943 46.9482004,45.0239097 46.9482004,43.2160357 C46.9482004,42.0107864 47.5786792,40.9135817 48.8396369,39.9244217 L36.8588518,39.9244217 L36.8588518,47.0769006 C35.6560151,45.5268718 34.4869169,44.7518574 33.3515573,44.7518574 C31.6485179,44.7518574 30.1259892,46.5247235 30.1259892,48.6582335 C30.1259892,50.7917434 32.1812876,52.0355013 33.3515573,52.3146593 C34.1317371,52.5007646 35.3008353,51.8068997 36.8588518,50.2330647 L36.8588518,57.0964324 Z" id="Path-5"></path>
            <path d="M66.1794872,41.025641 L66.1794872,46.6660367 C67.6615532,45.9133501 68.9395164,45.5370068 70.013377,45.5370068 C71.6241679,45.5370068 72.5566034,46.6660367 72.5566034,48.892246 C72.5566034,51.1184553 71.2286325,51.4702372 69.687699,51.4702372 C68.66041,51.4702372 67.4910061,50.8802894 66.1794872,49.7003937 L66.1794872,56.758851" id="Path-9"></path>
            <path d="M7.53034687,19.7194052 L7.53034687,39.87089 L18.5533368,39.87089 C16.2780284,38.0994595 15.3752499,36.5148301 15.8450011,35.1170018 C16.549628,33.0202594 18.9270667,31.5612956 21.3458417,31.5612956 C23.7646168,31.5612956 25.800808,33.5497027 25.800808,35.626797 C25.800808,37.0115265 24.9021636,38.4262242 23.1048748,39.87089 L36.691642,39.87089 L36.691642,33.036729 C35.0798975,34.7319172 33.4468719,35.4253415 31.7925653,35.1170018 C29.3111055,34.6544923 28.1540526,32.2237087 28.4223423,30.2256033 C28.6906321,28.227498 31.041206,26.2854639 32.8850349,26.2854639 C34.1142541,26.2854639 35.3831231,27.0916086 36.691642,28.7038979 L36.691642,19.7194052" id="Path-3"></path>
            <path d="M88.9171475,40.9945438 L88.9171475,19.8290598 L82.8782718,19.8290598 C84.4296587,21.1137894 85.2053522,22.4636259 85.2053522,23.8785693 C85.2053522,26.0009845 82.3243085,27.5810802 80.1625686,27.5810802 C78.0008287,27.5810802 76.4757505,25.7803892 76.1413078,23.8785693 C75.9183459,22.6106894 76.8043581,21.2608529 78.7993443,19.8290598 L66.2154878,19.8290598 L66.2154878,27.5810802 C64.8026066,25.3330484 63.3247654,24.3428503 61.7819644,24.610486 C59.4677629,25.0119395 58.1923077,26.8836451 58.1923077,28.5723515 C58.1923077,30.2610578 59.7281736,32.2008121 61.7819644,32.2008121 C63.1511583,32.2008121 64.6289994,31.6044754 66.2154878,30.4118018 L66.2154878,40.9945438" id="Path-8"></path>
            <polyline id="Path-11" points="66.2967103 0.203976903 88.9735069 0.203976903 88.9735069 20.0787564"></polyline>
        </g>
    </g>
</svg>