<?xml version="1.0" encoding="UTF-8"?>
<svg width="162px" height="80px" viewBox="0 0 162 80" version="1.1" xmlns="http://www.w3.org/2000/svg" xmlns:xlink="http://www.w3.org/1999/xlink">
    <!-- Generator: Sketch 50 (54983) - http://www.bohemiancoding.com/sketch -->
    <title>Export/problems-4</title>
    <desc>Created with Sketch.</desc>
    <defs></defs>
    <g id="Export/problems-4" stroke="none" stroke-width="1" fill="none" fill-rule="evenodd">
        <g id="Group" transform="translate(27.000000, 0.000000)" stroke="#262B3D">
            <path d="M0.900439407,54.5340376 L0.900439407,69.8723215 L7.74682145,69.8723215 C6.7859974,70.8228007 6.30558538,71.8716464 6.30558538,73.0188586 C6.30558538,74.739677 8.08312689,75.8618722 9.67119335,75.8618722 C11.2592598,75.8618722 12.769953,74.1323744 12.769953,72.5534897 C12.769953,71.5008999 12.2663886,70.6071772 11.2592598,69.8723215 L18.5517509,69.8723215 L18.5517509,64.6789779 C17.5660822,65.9586613 16.5561444,66.4539826 15.5219377,66.164942 C13.9706275,65.731381 12.6431784,64.6620214 12.769953,63.0630782 C12.8967277,61.464135 14.3452516,60.0263099 16.0086485,60.0263099 C17.1175797,60.0263099 17.9652805,60.6035749 18.5517509,61.7581051 L18.887801,54.5340376 L0.900439407,54.5340376 Z" id="Path-4"></path>
            <path d="M43.4027114,33.7931034 L38.1729958,50.563488 L43.9775204,52.0793194 C42.7930975,52.7706079 42.0565622,53.7518905 41.7679145,55.0231671 C41.334943,56.930082 42.2008861,58.5830021 43.9775204,59.0698089 C45.7541548,59.5566158 47.8163053,58.2799837 48.4878947,56.8644759 C48.9356211,55.9208041 48.6373638,54.6713962 47.5931231,53.1162522 L53.4385049,55.0231671 L55.0329553,49.3328004 C55.5128566,50.7599657 56.4408247,51.6754721 57.8168595,52.0793194 C59.8809118,52.6850903 61.6295311,51.7382916 62.167891,49.8436085 C62.7062509,47.9489254 61.8024748,45.3683575 59.8809118,44.8151735 C58.5998699,44.4463842 57.2834183,44.7895608 55.9315573,45.8447033 L57.8168595,38.808264 L43.4027114,33.7931034 Z" id="Path-6"></path>
            <path d="M79.6196606,0.122378831 L76.0781115,6.16962199 C77.7827956,5.93351108 78.963312,6.29915201 79.6196606,7.26654478 C80.6041835,8.71763394 80.544409,10.116358 79.6196606,11.3895143 C78.6949122,12.6626705 76.9772242,13.2974503 75.6937989,12.6715125 C74.838182,12.2542206 74.2828652,11.4590346 74.0278485,10.2859543 L70.8915513,15.4205843 L80.0399785,20.7178253 C78.680627,20.7273556 77.7284851,21.3904787 77.1835528,22.7071944 C76.3661544,24.6822681 77.4612617,27.4030032 79.2509248,28.1445822 C81.0405879,28.8861613 83.6093616,27.5140495 84.3435135,25.7886361 C84.8329482,24.6383606 84.7130154,23.3230914 83.9837152,21.8428285 L92.335428,25.7886361 L95.5059431,20.3285287 C95.6763467,22.3479431 96.4191808,23.4960062 97.7344454,23.7727182 C99.7073422,24.1877862 101.804478,23.6858234 102.703697,21.8428285 C103.602915,19.9998336 102.703697,17.7400258 101.064559,16.903485 C99.9718001,16.3457911 98.6308343,16.3457911 97.0416613,16.903485 L100.546184,10.8835564 L79.6196606,0.122378831 Z" id="Path-7"></path>
            <path d="M0.180221386,1.12371432 L0.180221386,20.8856747 L12.3901507,20.8856747 C10.722997,19.821943 9.88942012,18.5235446 9.88942012,16.9904795 C9.88942012,14.6908818 11.9025151,12.8714927 14.2922154,12.8714927 C16.6819156,12.8714927 18.8719588,14.7979347 18.8719588,16.9904795 C18.8719588,18.452176 18.0548699,19.7505744 16.420692,20.8856747 L29.579614,20.8856747 L41.3479379,20.8856747 C39.8725205,22.0136382 39.1348117,23.3640337 39.1348117,24.9368613 C39.1348117,27.2961027 41.9100993,28.5399552 44.2586578,28.5399552 C46.6072163,28.5399552 48.5038826,27.0636451 48.5038826,24.9368613 C48.5038826,23.5190055 47.7719531,22.1686099 46.3080942,20.8856747 L59.4410094,20.8856747 L59.4410094,12.8714927 C58.3762611,14.6930908 56.9848133,15.6038899 55.2666658,15.6038899 C52.6894447,15.6038899 50.5905329,13.1618468 50.8628507,11.103591 C51.1351685,9.04533513 53.1845934,7.25733418 55.2666658,7.25733418 C56.6547141,7.25733418 58.0461619,7.84272648 59.4410094,9.01351107 L59.4410094,1.12371432 L0.180221386,1.12371432 Z" id="Path-2"></path>
            <path d="M29.5959319,20.9162613 L29.5959319,13.9445703 C31.2770578,15.4327752 32.710074,16.1768776 33.8949804,16.1768776 C35.6723401,16.1768776 38.4193762,14.8523462 38.171031,12.3428554 C37.9226858,9.83336468 35.955788,8.16884055 33.8834815,7.68554567 C32.5019438,7.36334909 31.0727606,8.24916913 29.5959319,10.3430058 L29.5959319,1.37707278" id="Path-10"></path>
            <path d="M59.4329649,79.9968447 L90.9120972,79.9968447 L108.885784,79.9968447 L108.885784,63.7597637 L102.092293,63.7597637 C103.61624,62.3811014 104.378213,61.0633329 104.378213,59.8064583 C104.378213,57.9211464 102.572967,56.6610753 100.370897,56.6610753 C98.1688279,56.6610753 96.2796462,57.9393666 96.2796462,59.8064583 C96.2796462,61.0511861 96.8261056,62.3689546 97.9190244,63.7597637 L75.4761374,63.7597637 C77.0016833,65.2186588 77.7644562,66.5412221 77.7644562,67.7274534 C77.7644562,69.5068004 76.4573919,70.5367216 74.2434861,70.5367216 C72.0295802,70.5367216 70.5220303,69.5509125 70.5220303,67.7274534 C70.5220303,66.511814 71.1644159,65.1892508 72.449187,63.7597637 L59.4329649,63.7597637 L59.4329649,70.5367216 C58.2124642,69.0743103 57.0301741,68.3431046 55.8860947,68.3431046 C54.1699755,68.3431046 52.5987048,69.0383493 52.5987048,71.1902516 C52.5987048,73.342154 54.706837,74.6078686 55.8860947,74.8894331 C56.6722665,75.0771428 57.8545565,74.5455602 59.4329649,73.2946855 L59.4329649,79.9968447 Z" id="Path-5"></path>
            <path d="M85.9162622,63.9525143 L85.9162622,69.6415341 C87.4097109,68.8823588 88.6974893,68.5027712 89.7795974,68.5027712 C91.4027596,68.5027712 92.3423565,69.6415341 92.3423565,71.8869348 C92.3423565,74.1323355 91.0041864,74.4871501 89.4514181,74.4871501 C88.4162392,74.4871501 87.2378539,73.8921165 85.9162622,72.7020493 L85.9162622,79.8213553" id="Path-9"></path>
            <path d="M0.229532204,20.8089403 L0.229532204,41.1341448 L11.3371817,41.1341448 C9.04439836,39.3474433 8.13468623,37.7491533 8.60804529,36.3392748 C9.31808388,34.2244571 11.7137819,32.752916 14.1511338,32.752916 C16.5884858,32.752916 18.6403154,34.7584645 18.6403154,36.8534648 C18.6403154,38.2501316 17.7347692,39.677025 15.9236768,41.1341448 L29.6147941,41.1341448 L29.6147941,34.2410686 C27.9906709,35.9508705 26.3451032,36.6502726 24.6780911,36.3392748 C22.177573,35.8727782 21.0116336,33.4210395 21.2819839,31.4057091 C21.5523342,29.3903787 23.9209612,27.431603 25.7789511,27.431603 C27.0176111,27.431603 28.2962254,28.2446972 29.6147941,29.8708855 L29.6147941,20.8089403" id="Path-3"></path>
            <path d="M108.86539,63.8242994 L108.86539,42.4763544 L102.780134,42.4763544 C104.343436,43.7721592 105.125087,45.1336322 105.125087,46.5607734 C105.125087,48.7014853 102.221916,50.2952025 100.043573,50.2952025 C97.8652308,50.2952025 96.3284395,48.4789883 95.9914281,46.5607734 C95.7667539,45.2819635 96.6595709,43.9204905 98.6698792,42.4763544 L85.9893752,42.4763544 L85.9893752,50.2952025 C84.5656426,48.0277911 83.0764513,47.0290568 81.5218011,47.2989997 C79.1898259,47.703914 77.9045749,49.5917551 77.9045749,51.2950192 C77.9045749,52.9982834 79.4522366,54.9547597 81.5218011,54.9547597 C82.9015108,54.9547597 84.3907022,54.3532821 85.9893752,53.1503269 L85.9893752,63.8242994" id="Path-8"></path>
        </g>
    </g>
</svg>