<?xml version="1.0" encoding="UTF-8"?>
<svg width="164px" height="80px" viewBox="0 0 164 80" version="1.1" xmlns="http://www.w3.org/2000/svg" xmlns:xlink="http://www.w3.org/1999/xlink">
    <!-- Generator: Sketch 50 (54983) - http://www.bohemiancoding.com/sketch -->
    <title>Export/relax-1</title>
    <desc>Created with Sketch.</desc>
    <defs></defs>
    <g id="Export/relax-1" stroke="none" stroke-width="1" fill="none" fill-rule="evenodd">
        <g id="Group" transform="translate(46.000000, 0.000000)" stroke="#262B3D" stroke-width="0.5">
            <path d="M4.56694613,36.9219066 C2.76465864,38.5132225 1.648562,48.9008157 3.59119963,52.7397003 C4.47681283,54.4897781 5.39838854,57.8569507 6.46405644,62.2246405 C7.06757326,64.6981824 6.20273234,66.0758085 7.25245379,70.7417478 C7.68239914,72.6528251 9.37475003,74.7557275 10.8149479,76.0576262 C11.7189341,76.8748045 12.6982743,78.0436277 13.6251408,78.7611239 C14.5520073,79.4786201 14.5520073,79.8473951 15.5439384,79.8473951 C16.5358695,79.8473951 16.5358695,78.3712757 15.5439384,77.121315 C14.5520073,75.8713544 13.5085899,74.6930159 13.1817826,73.4726304 C12.8549754,72.2522449 12.8549754,72.8057772 12.8839481,72.565069 C13.1401147,70.4368095 13.1460197,68.7581303 14.5520073,66.0012289 C14.870455,65.3768074 15.2498482,64.378086 18.6703084,62.0282002 C19.7130057,61.3118582 21.2879494,59.6865225 22.3072552,58.3300026 C23.2431014,57.0845531 24.0089965,56.2625879 24.3165966,53.9991868 C24.5216634,52.4902527 23.0877012,49.6249328 20.01471,45.403227" id="bleg1"></path>
            <g id="Head" transform="translate(45.250540, 10.530452)">
                <path d="M6.33531065,21.813034 C5.46057294,21.2756357 4.6174351,20.7428254 3.80589713,20.2146029 C2.58859019,19.4222691 0.490899303,18.1763016 0.177747376,15.4973508 C-0.135404551,12.8184001 0.727329008,10.7349766 1.79987436,9.18365413 C2.51490459,8.14943913 3.18357885,7.47472129 3.80589713,7.15950061" id="Path-4"></path>
                <path d="M4.00919718,7.94864733 C3.70103399,6.73443747 3.5469524,5.62036077 3.5469524,4.60641724 C3.5469524,3.08550195 3.5469524,3.08550195 3.77807479,1.5083817 C4.00919718,-0.0687385503 4.95367273,-0.0139044452 5.47440862,0.299472465 C5.99514451,0.612849375 6.42949307,0.934456678 7.4362444,2.10479398 C8.10741196,2.88501885 8.72248539,3.75846522 9.28146469,4.72513308" id="Path-5"></path>
                <path d="M21.2991897,9.24775787 C20.9910265,8.03354801 20.8369449,6.91947131 20.8369449,5.90552778 C20.8369449,4.38461249 20.8369449,4.38461249 21.0680673,2.80749224 C21.2991897,1.23037199 22.2436652,1.28520609 22.7644011,1.598583 C23.285137,1.91195991 23.7194856,2.23356722 24.7262369,3.40390452 C25.3974045,4.18412939 26.0124779,5.05757576 26.5714572,6.02424362" id="Path-5" transform="translate(23.704201, 5.334935) scale(-1, 1) rotate(-20.000000) translate(-23.704201, -5.334935) "></path>
                <path d="M8.68956104,3.59151512 C8.68956104,3.59151512 11.7952868,2.92897794 15.0281611,3.16544591 C18.1312262,3.39241902 21.3667611,4.5187865 21.3667611,4.5187865" id="Path-6"></path>
                <path d="M18.2004548,22.7009702 C20.9434021,22.0565283 22.9021084,21.3361415 24.0765736,20.5398097 C25.8382715,19.3453119 26.5629359,18.5249265 27.0796523,16.6805387 C27.5963688,14.8361509 26.9213961,13.3915925 26.4235201,12.1625274 C26.0916028,11.3431508 25.556825,10.4489698 24.8191867,9.47998459" id="Path-7"></path>
            </g>
            <path d="M66.406602,32.3772102 C66.388149,34.6413025 66.1784918,37.0736929 65.7776303,39.6743812 C65.176338,43.5754136 64.4306845,45.5030204 63.2401769,48.2228996 C62.0496693,50.9427788 60.7310013,53.452504 59.9786218,56.5193072 C59.2262424,59.5861105 57.9855729,63.1516875 57.4710509,65.3072219 C57.1280362,66.7442449 56.785994,68.4080564 56.4449244,70.2986564" id="Path-8"></path>
            <path d="M59.0021165,44.6365422 C58.767969,46.5284144 58.5339393,47.8739683 58.3000274,48.6732039 C57.9491595,49.8720574 57.9863855,50.3590649 56.2433598,53.8793262 C54.500334,57.3995876 53.4287787,57.3995876 54.2893399,61.4042749 C55.1499011,65.4089622 55.2958027,64.9300349 56.2433598,68.6087655 C57.1909169,72.2874961 57.9011891,74.8708476 58.0736862,76.0963613 C58.2461833,77.321875 58.6557029,78.1427236 57.6716675,78.7562435 C56.6876321,79.3697634 56.2433598,79.3697634 55.2670718,77.8462107 C54.2907837,76.3226579 53.7107401,74.3359226 51.6866077,70.3006727 C49.6624752,66.2654227 48.4433821,65.2446499 47.5702041,62.5019651 C46.697026,59.7592803 45.0688286,59.3978784 46.811596,54.9880791 C47.973441,52.0482129 48.9890754,49.7757661 49.8584993,48.1707389" id="Path-9"></path>
            <path d="M51.7539323,70.8840864 C51.5592299,74.0208972 51.5090736,76.0455611 51.6034634,76.9580781 C51.7450481,78.3268535 51.1832162,78.2878666 52.5666992,78.7415433 C53.4890212,79.0439945 54.0942085,78.3683562 54.382261,76.7146286" id="Path-10"></path>
            <path d="M22.9436184,49.7219447 C24.1742765,46.5731334 26.0266171,44.1166135 28.5006399,42.3523849 C32.2116742,39.7060421 36.8778281,38.8496578 40.4969478,41.8457871 C42.9096942,43.8432067 45.3501499,47.3636503 47.8183148,52.407118" id="Path-3"></path>
            <path d="M4.52245902,36.97483 C3.47813148,36.1873483 2.48921585,34.8343513 1.55571212,32.915839 C0.6222084,30.9973268 0.155456539,28.4263953 0.155456539,25.2030446 L0.68011328,25.630937 C0.558114788,23.3334137 0.497115541,21.6470378 0.497115541,20.5718094 C0.497115541,19.496581 0.689902215,18.1646286 1.07547556,16.5759522 L1.55571212,17.0204497 C2.12278472,14.5340947 3.22968083,12.4210878 4.87640043,10.6814288 C6.52312004,8.94176979 8.11327687,7.53968815 9.64687094,6.47518383 L9.82999087,7.22218817 C11.9434644,5.04213589 13.793361,3.53592753 15.3796807,2.7035631 C17.7591602,1.45501646 19.3504411,0.93503839 20.7074963,0.497341756 C21.6121997,0.205543999 22.5731639,0.0582065338 23.5903887,0.0553293587 L22.9387039,0.733202192 C28.2632332,0.901136027 31.8168478,1.14174078 33.5995476,1.45501646 C35.3822473,1.76829213 36.9266418,2.11974828 38.2327312,2.5093849 L36.8796154,2.7035631 C38.4032729,3.57584006 39.6146672,4.31004227 40.5137982,4.90616973 C41.4129291,5.50229719 42.5328012,6.50444047 43.8734144,7.91259956 L42.6810951,7.4857238 L44.9151356,9.10602174 C44.3991692,9.0772546 42.8077104,8.53715529 40.1407593,7.4857238 C36.1403326,5.90857658 36.1403326,5.13525257 32.217536,4.3375292 C29.6023382,3.80571361 26.8606007,3.65009242 23.9923234,3.8706656 L27.209727,4.60840722 C22.7152809,5.23593756 19.2088062,6.19504309 16.6903027,7.4857238 C14.1717993,8.77640452 11.6230025,10.4431667 9.04391229,12.4860102 L11.5635111,12.1602336 C9.64195016,13.8830465 8.0920031,15.7716997 6.91366994,17.8261932 C5.73533679,19.8806867 4.93826648,22.084197 4.52245902,24.4367241 L5.9942175,22.4593597 C5.88305066,24.1211326 5.82746724,25.4071725 5.82746724,26.3174793 C5.82746724,27.6829395 5.84937624,27.7991718 5.9942175,29.1991168 C6.09077834,30.1324136 6.29187787,30.9438051 6.5975161,31.6332914" id="Path-11"></path>
            <path d="M6.5277852,31.5612006 C7.30908525,29.8251506 7.95135272,28.6128902 8.45458761,27.9244196 C9.20943995,26.8917136 10.7098783,24.4134197 10.9980341,24.5694149 C11.190138,24.6734117 11.4389384,25.2072703 11.7444352,26.1709907 C12.466709,23.7958127 13.0916668,22.0176804 13.6193085,20.8365938 C14.410771,19.0649638 16.7325596,16.0600241 16.9840742,16.1593863 C17.3560732,16.3063466 17.7980554,16.9210293 18.3100206,18.0034347 C22.3391273,13.0621236 24.8415917,10.6718958 25.8174137,10.8327515 C26.7932357,10.9936072 27.9711131,11.9835803 29.3510461,13.8026711 C30.656701,11.342215 31.6971389,10.111987 32.4723596,10.111987 C33.2475803,10.111987 34.5543692,11.8174268 36.3927264,15.2283064 C36.6360548,13.6218572 37.013643,12.7266306 37.525491,12.5426268 C38.037339,12.3586229 39.7769639,14.1788922 42.7443658,18.0034347 C42.9695752,16.7740691 43.2493983,16.1593863 43.5838352,16.1593863 C43.9182721,16.1593863 44.7753121,17.8025009 46.1549553,21.08873" id="Path-12"></path>
            <path d="M24.6500637,46.4804975 C24.8071824,47.0660718 25.3316304,48.9826338 26.2234076,52.2301835 C27.5610735,57.101508 25.6853447,58.3871976 23.7577853,60.176966 C21.8302259,61.9667344 20.0768656,62.7877805 18.2777408,65.0424688 C16.4786159,67.2971572 15.1014849,68.629694 14.9584298,71.2044408 C14.8153747,73.7791875 15.477283,74.5146315 16.0381901,75.7326792 C16.5990973,76.9507269 16.4172335,76.3412507 17.0888169,77.9387211 C17.5365391,79.0037014 17.2739565,79.5147579 16.3010691,79.4718905" id="Path-2"></path>
        </g>
    </g>
</svg>