<?xml version="1.0" encoding="UTF-8"?>
<svg width="164px" height="80px" viewBox="0 0 164 80" version="1.1" xmlns="http://www.w3.org/2000/svg" xmlns:xlink="http://www.w3.org/1999/xlink">
    <!-- Generator: Sketch 50 (54983) - http://www.bohemiancoding.com/sketch -->
    <title>Export/relax-2</title>
    <desc>Created with Sketch.</desc>
    <defs></defs>
    <g id="Export/relax-2" stroke="none" stroke-width="1" fill="none" fill-rule="evenodd">
        <g id="Group" transform="translate(39.000000, 0.000000)" stroke="#262B3D" stroke-width="0.5">
            <path d="M10.4966797,32.6626146 C8.49165475,34.4388861 8.0667413,44.5600315 9.78347636,49.5712883 C10.5217655,51.7264003 11.7939541,55.2833068 12.9794978,60.1586448 C13.6509036,62.9196817 12.6887777,64.4574266 13.8565812,69.665679 C14.3348906,71.7988772 16.2176123,74.1461959 17.8198165,75.5994117 C18.8254912,76.511569 19.9149964,77.8162423 20.9461251,78.6171317 C21.9772538,79.4180211 21.9772538,79.8296581 23.0807662,79.8296581 C24.1842786,79.8296581 24.1842786,78.1819722 23.0807662,76.786731 C21.9772538,75.3914899 20.8164635,74.0761954 20.452894,72.7139668 C20.0893245,71.3517382 20.0893245,71.9696065 20.1215563,71.7009213 C20.4065388,69.3252983 20.172167,66.353427 21.9772538,64.3741787 C23.7823406,62.3949305 24.2492261,62.7816532 28.0544503,60.1586448 C29.2144395,59.3590436 31.706285,57.8684867 32.8402515,56.3543011 C33.8813701,54.9640954 33.3785915,53.0845162 32.8402515,50.9771625 C32.4813583,49.57226 30.8860912,46.3739095 28.0544503,41.3821109" id="bleg1"></path>
            <g id="Head" transform="translate(56.129032, 2.456140)">
                <path d="M7.04796311,24.3483209 C6.07482707,23.7484618 5.13684554,23.1537239 4.23401852,22.5641071 C2.87977799,21.679682 0.546120051,20.2888981 0.197741992,17.298578 C-0.150636067,14.308258 0.809145486,11.9826822 2.00234034,10.2510525 C2.79780357,9.09663271 3.5416963,8.34349372 4.23401852,7.99163554" id="Path-4"></path>
                <path d="M4.46018757,8.87250328 C4.11735943,7.51716814 3.94594536,6.27360446 3.94594536,5.14181223 C3.94594536,3.44412389 3.94594536,3.44412389 4.20306647,1.68369799 C4.46018757,-0.0767278993 5.51090619,-0.0155205321 6.09021911,0.334279572 C6.66953203,0.684079675 7.15274001,1.04306677 8.27273975,2.34943013 C9.01940624,3.22033903 9.70366864,4.19530438 10.3255269,5.27432618" id="Path-5"></path>
                <path d="M23.6951132,10.3226069 C23.3522851,8.96727179 23.180871,7.72370811 23.180871,6.59191588 C23.180871,4.89422754 23.180871,4.89422754 23.4379921,3.13380164 C23.6951132,1.37337575 24.7458318,1.43458312 25.3251448,1.78438322 C25.9044577,2.13418333 26.3876657,2.49317042 27.5076654,3.79953378 C28.2543319,4.67044268 28.9385943,5.64540803 29.5604526,6.72442983" id="Path-5" transform="translate(26.370662, 5.955005) scale(-1, 1) rotate(-20.000000) translate(-26.370662, -5.955005) "></path>
                <path d="M9.66704066,4.00894999 C9.66704066,4.00894999 13.1221263,3.26940739 16.7186632,3.53335958 C20.1707889,3.78671334 23.7702857,5.04399634 23.7702857,5.04399634" id="Path-6"></path>
                <path d="M20.2478049,25.3394602 C23.2993035,24.6201161 25.4783426,23.816 26.7849222,22.9271121 C28.7447916,21.5937802 29.5509727,20.6780429 30.1258141,18.6192855 C30.7006554,16.5605281 29.9497557,14.9480714 29.3958742,13.5761545 C29.0266199,12.6615433 28.4316855,11.6634334 27.611071,10.5818249" id="Path-7"></path>
            </g>
            <path d="M79.6649176,26.8421053 C79.6443889,29.3693487 79.4111475,32.084451 78.9651935,34.9874123 C78.2962625,39.3418543 77.4667311,41.4935031 76.1423046,44.5295085 C74.8178781,47.565514 73.3508745,50.3669397 72.5138607,53.7901916 C71.6768468,57.2134435 70.2966157,61.1934406 69.7242156,63.5995087 C69.3426156,65.2035541 68.9620975,67.0607472 68.5826613,69.171088" id="Path-8"></path>
            <path d="M71.4275093,40.5263158 C71.1670228,42.6380766 70.9066673,44.1400216 70.6464429,45.0321509 C70.2561062,46.3703448 70.2975198,46.9139562 68.3584229,50.8433707 C66.419326,54.7727852 65.2272325,54.7727852 66.1845973,59.2429297 C67.1419622,63.7130741 67.3042761,63.1784819 68.3584229,67.2847843 C69.4125697,71.3910867 70.2027396,74.2746961 70.3946408,75.6426489 C70.5865419,77.0106017 71.0421279,77.926856 69.9473994,78.6116841 C68.8526709,79.2965122 68.3584229,79.2965122 67.2723132,77.5958799 C66.1862036,75.8952476 65.5409114,73.6775979 63.2890865,69.1733386 C61.0372615,64.6690793 59.6810338,63.529664 58.7096329,60.4682023 C57.738232,57.4067405 55.9268804,57.0033336 57.8656899,52.0809918 C59.1582296,48.7994306 60.2881117,46.2628618 61.2553362,44.4712853" id="Path-9"></path>
            <path d="M63.3639844,69.8245614 C63.1473801,73.3259576 63.0915818,75.5859443 63.1965894,76.6045214 C63.3541008,78.132387 62.729069,78.0888687 64.2681786,78.5952753 C65.2942517,78.9328798 65.9675158,78.1787134 66.2879711,76.3327763" id="Path-10"></path>
            <path d="M10.2544062,50.9579798 C9.58163016,52.4829708 7.76051861,54.6168281 5.63394461,56.7746402 C3.50737062,58.9324523 3.29394081,58.4590334 1.57597614,60.6336521 C-0.141988535,62.8082709 0.0150544078,63.0425885 0.190151647,66.4573179 C0.365248885,69.8720472 2.22668253,74.6165623 2.9912657,76.3832522 C3.75584887,78.1499421 4.45830181,78.168662 5.2222789,78.0848409 C5.98625599,78.0010199 7.05052225,77.4741428 6.62851158,75.9841857 C6.20650091,74.4942285 5.77898255,73.89339 5.2222789,71.9812006 C4.66557526,70.0690111 3.9205271,67.8979232 5.63394461,64.5214104 C7.34736213,61.1448976 8.74312117,61.1448976 9.6053861,60.6944054 C10.467651,60.2439131 11.7923861,59.8960699 12.7905761,59.1859489" id="Path-2"></path>
            <path d="M33.5616499,54.8998098 C39.0930101,54.1409448 43.2158059,53.7615123 45.9300374,53.7615123 C48.6442689,53.7615123 52.3504284,54.1409448 57.0485159,54.8998098" id="Path-3"></path>
            <path d="M13.2160011,28.0889441 C15.7875609,25.2405708 18.9112655,23.9828952 22.5871148,24.3159173 C28.1008887,24.8154505 28.2124853,25.543978 37.3756689,26.5415426 C46.5388526,27.5391073 56.1794496,29.0739954 61.1429971,25.6025405" id="Path-11"></path>
            <path d="M10.4861903,32.7804491 C9.0794561,31.4394667 7.98940715,29.6644366 7.2160435,27.4553589 C6.05599803,24.1417422 6.20521444,23.5373856 6.20521444,20.552038 C6.20521444,17.5666904 6.43117339,16.8284472 7.84927498,13.2373654 C9.26737657,9.64628363 12.056593,8.09197795 16.3734526,6.36093457 C20.6903122,4.62989119 24.1625626,5.64461645 26.7840005,5.64461645 C29.4054384,5.64461645 38.0629947,9.30184058 41.9292523,8.15024221 C45.79551,6.99864384 45.0566578,6.72190487 45.4260839,3.29333753 C45.79551,-0.13522981 45.9474921,0.127553582 47.2098249,0.127553582 C48.4721577,0.127553582 49.9854213,0.853112495 49.4338306,4.33582959 C48.8822399,7.81854669 48.0509359,12.4772401 42.4145102,13.2373654 C36.7780846,13.9974908 35.2521021,12.0848781 27.8195225,10.8767885 C20.386943,9.66869896 17.2358248,10.8767885 13.8077212,13.2373654 C10.3796177,15.5979423 10.4861903,18.6503092 10.4861903,21.9272787 C10.4861903,24.1119251 11.3723674,26.1850078 13.1447214,28.1465268" id="Path-12"></path>
        </g>
    </g>
</svg>