<?xml version="1.0" encoding="UTF-8"?>
<svg width="164px" height="80px" viewBox="0 0 164 80" version="1.1" xmlns="http://www.w3.org/2000/svg" xmlns:xlink="http://www.w3.org/1999/xlink">
    <!-- Generator: Sketch 50 (54983) - http://www.bohemiancoding.com/sketch -->
    <title>Export/relax-4</title>
    <desc>Created with Sketch.</desc>
    <defs></defs>
    <g id="Export/relax-4" stroke="none" stroke-width="1" fill="none" fill-rule="evenodd">
        <g id="Group" transform="translate(32.000000, 0.000000)" stroke="#262B3D" stroke-width="0.5">
            <g id="Head" transform="translate(63.256785, 0.000000)">
                <path d="M8.38862022,28.8385307 C7.23037513,28.1280483 6.1139716,27.4236314 5.03940965,26.7252801 C3.42756673,25.6777532 0.650002509,24.030487 0.235356293,20.4887054 C-0.179289922,16.9469237 0.963060402,14.1924756 2.38322369,12.1415064 C3.32999922,10.7741936 4.21539454,9.88216399 5.03940965,9.46541768" id="Path-4"></path>
                <path d="M5.30860038,10.5087312 C4.90055978,8.9034511 4.69653949,7.43055489 4.69653949,6.09004254 C4.69653949,4.07927401 4.69653949,4.07927401 5.00256993,1.99419814 C5.30860038,-0.0908777197 6.55918573,-0.0183827601 7.24869503,0.395925934 C7.93820432,0.810234628 8.51332768,1.23542454 9.84637275,2.78270165 C10.7350695,3.81421973 11.5494916,4.96898389 12.2896392,6.24699413" id="Path-5"></path>
                <path d="M28.202376,12.2262565 C27.7943354,10.6209765 27.5903151,9.14808025 27.5903151,7.8075679 C27.5903151,5.79679937 27.5903151,5.79679937 27.8963456,3.71172351 C28.202376,1.62664764 29.4529614,1.6991426 30.1424707,2.1134513 C30.83198,2.52775999 31.4071033,2.9529499 32.7401484,4.50022702 C33.6288451,5.53174509 34.4432673,6.68650925 35.1834149,7.96451949" id="Path-5" transform="translate(31.386865, 7.053200) scale(-1, 1) rotate(-20.000000) translate(-31.386865, -7.053200) "></path>
                <path d="M11.5058963,4.74826284 C11.5058963,4.74826284 15.6182051,3.87233707 19.898872,4.18496615 C24.0076579,4.48504229 28.2918477,5.97418787 28.2918477,5.97418787" id="Path-6"></path>
                <path d="M24.0993239,30.0124516 C27.7312757,29.1604491 30.3248096,28.2080416 31.8799256,27.1552289 C34.2125996,25.5760098 35.1721318,24.4913963 35.8563189,22.052972 C36.540506,19.6145476 35.6467709,17.7047288 34.9875306,16.079809 C34.548037,14.9965292 33.8399347,13.8143523 32.8632237,12.5332783" id="Path-7"></path>
            </g>
            <path d="M92.150829,28.902031 C90.0231934,35.0922704 87.9962292,39.5697099 86.0699364,42.3343495 C84.1436436,45.0989892 80.7161166,48.4499039 75.7873554,52.3870937" id="Path-2"></path>
            <path d="M63.7179923,21.9047805 C56.9222183,22.7178482 54.9796662,20.9496527 46.3141594,18.7670789 C37.6486526,16.5845052 32.6682118,16.3655076 25.9369178,18.7670789 C21.7738139,20.252379 17.4912084,26.5322235 16.2794753,29.4827657 C15.0677422,32.433308 14.7687106,33.2186825 14.3790543,35.4779089 C13.989398,37.7371353 12.9228931,39.0587492 11.6367801,40.4609144 C10.3506672,41.8630797 3.45480283,45.2812102 1.38299337,52.5854486 C-0.688816092,59.8896869 -0.306229368,62.7505037 2.62569291,68.4681659 C5.55761519,74.1858281 10.6272592,76.0983537 19.2740781,78.486971 C27.920897,80.8755883 37.5370912,79.7448823 45.0503827,78.486971 C52.5636742,77.2290598 53.1830281,77.2290598 59.263104,75.8513691 C65.3431799,74.4736784 68.4843107,74.4736784 71.6352522,75.2408547 C74.7861938,76.008031 77.4129026,75.0914103 76.8434553,73.42035 C76.2740081,71.7492898 76.8434553,69.0618377 71.6352522,69.0618377 C66.4270492,69.0618377 63.4778102,68.4681659 50.8374172,71.1472666 C38.1970241,73.8263672 35.6188857,75.1797183 23.900642,73.42035 C12.1823983,71.6609817 6.42650215,66.6974743 6.42650215,58.9976906 C6.42650215,53.8645015 9.07735286,49.3893772 14.3790543,45.5723179" id="Path-3"></path>
            <path d="M14.1419252,44.3054618 C14.8905693,49.4145829 18.9738961,51.8382777 24.2687398,53.2061181 C29.5635834,54.5739585 41.002868,54.9341933 43.3836404,54.9918105 C45.7644128,55.0494277 47.0369006,55.1668084 47.0369006,53.7571318 C47.0369006,52.3474552 46.6857734,51.4505274 42.1998037,50.3426328 C37.713834,49.2347382 29.752987,47.9518736 28.8587661,46.0373284" id="Path-8"></path>
            <path d="M28.0579859,27.6062948 C33.8043254,24.5092549 40.1773956,23.9490227 44.0237125,26.7419384 C47.8700293,29.5348541 47.0982871,34.8155701 44.9888034,39.9737465 C43.5824809,43.4125308 41.9786783,46.6846393 40.1773956,49.7900721" id="Path-9"></path>
            <path d="M51.2133864,40.8048262 C59.6411867,52.6654689 60.7258403,56.4124169 73.2062571,57.7979499 C85.6866739,59.1834828 89.0033152,59.1834828 90.7994497,59.1834828 C92.5955842,59.1834828 93.1926565,58.7461289 93.1926565,57.7979499 C93.1926565,56.8497709 93.1926565,56.0909573 91.3152893,55.6738798 C89.4379222,55.2568023 87.278836,54.6324092 79.2334247,53.1342631 C71.1880134,51.636117 68.1226559,50.25493 63.0155497,43.5710848" id="Path-10"></path>
            <path d="M79.5295509,49.3616678 C88.8627249,52.2615205 94.1140308,53.9743388 95.2834688,54.5001228 C97.0376257,55.2887988 97.2410946,55.8777832 97.2410946,56.7657143 C97.2410946,57.6536454 96.7486998,58.3509258 93.3021858,58.0875468" id="Path-11"></path>
            <path d="M47.1443364,53.7245965 C50.4053405,54.0085088 52.8456934,54.1787055 54.4653949,54.2351867 C56.0850965,54.2916678 58.5254493,54.2916678 61.7864534,54.2351867" id="Path-12"></path>
        </g>
    </g>
</svg>