<?xml version="1.0" encoding="UTF-8"?>
<svg width="164px" height="80px" viewBox="0 0 164 80" version="1.1" xmlns="http://www.w3.org/2000/svg" xmlns:xlink="http://www.w3.org/1999/xlink">
    <!-- Generator: Sketch 50 (54983) - http://www.bohemiancoding.com/sketch -->
    <title>Export/relax-3</title>
    <desc>Created with Sketch.</desc>
    <defs></defs>
    <g id="Export/relax-3" stroke="none" stroke-width="1" fill="none" fill-rule="evenodd">
        <g id="Group-2" transform="translate(51.000000, 0.000000)" stroke-width="0.5">
            <g id="Head" transform="translate(34.234097, 0.000000)" stroke="#262B3D">
                <path d="M6.33906472,21.9858105 C5.46380866,21.4441556 4.62017121,20.907125 3.80815236,20.3747185 C2.59012409,19.5761089 0.491190191,18.3202723 0.177852702,15.6201021 C-0.135484787,12.9199319 0.727759995,10.8200061 1.80094089,9.25639594 C2.51639483,8.21398914 3.18546532,7.533927 3.80815236,7.21620952" id="Path-4"></path>
                <path d="M4.01157288,8.01160692 C3.70322709,6.78777955 3.54905419,5.66487848 3.54905419,4.64290372 C3.54905419,3.10994157 3.54905419,3.10994157 3.78031353,1.52032928 C4.01157288,-0.069283014 4.95660809,-0.0140145795 5.47765254,0.301844524 C5.998697,0.617703628 6.43330294,0.941858315 7.44065084,2.12146562 C8.1122161,2.90787049 8.727654,3.78823524 9.28696453,4.76255988" id="Path-5"></path>
                <path d="M21.3118108,9.32100744 C21.003465,8.09718007 20.8492921,6.974279 20.8492921,5.95230424 C20.8492921,4.41934209 20.8492921,4.41934209 21.0805514,2.8297298 C21.3118108,1.24011751 22.256846,1.29538594 22.7778904,1.61124505 C23.2989349,1.92710415 23.7335408,2.25125884 24.7408887,3.43086614 C25.412454,4.21727101 26.0278919,5.09763576 26.5872024,6.0719604" id="Path-5" transform="translate(23.718247, 5.377192) scale(-1, 1) rotate(-20.000000) translate(-23.718247, -5.377192) "></path>
                <path d="M8.69471014,3.61996276 C8.69471014,3.61996276 11.8022762,2.95217777 15.0370662,3.19051875 C18.1419701,3.41928967 21.3794222,4.55457887 21.3794222,4.55457887" id="Path-6"></path>
                <path d="M18.2112397,22.8807799 C20.9558124,22.2312335 22.9156793,21.5051406 24.0908405,20.7025012 C25.8535822,19.4985421 26.5786761,18.6716586 27.0956987,16.8126618 C27.6127213,14.953665 26.9373487,13.4976645 26.4391777,12.2588643 C26.1070637,11.4329975 25.571969,10.5317339 24.8338936,9.55507358" id="Path-7"></path>
            </g>
            <path d="M55.402695,22.019802 C55.3842311,24.3018277 55.1744496,26.7534845 54.7733506,29.3747723 C54.171702,33.306704 53.4256066,35.249579 52.2343936,37.9910018 C51.0431806,40.7324245 49.7237312,43.2620287 48.9709059,46.3531235 C48.2180806,49.4442183 46.7330834,57.0559722 46.2777495,60.9798018 C45.8224156,64.9036313 46.2777495,68.265796 44.9927187,68.7611225 C44.1360314,69.0913402 43.7118662,68.9262313 43.720223,68.265796" id="Path-8" stroke="#262B3D"></path>
            <path d="M51.1461633,32.8274985 C50.788401,32.0520766 50.1353266,31.6643657 49.1869402,31.6643657 C47.7643605,31.6643657 47.3707757,37.4525031 47.0196999,38.6608525 C46.668624,39.8692018 43.7598615,48.0958697 43.0556629,49.2487966 C42.3514643,50.4017234 43.0556629,55.7785334 43.7005732,59.3216827 C44.3454836,62.8648321 44.1530416,65.3319728 44.325641,66.5671935 C44.4982403,67.8024143 44.0402814,68.0331997 43.0556629,68.6515792 C42.0710444,69.2699586 41.8353296,68.102814 40.858463,66.5671935 C39.8815965,65.0315731 40.271001,62.7896486 38.5543515,55.3032785 C37.4099186,50.3123651 37.4099186,45.5788672 38.5543515,41.1027849" id="Path-9" stroke="#262B3D"></path>
            <path d="M36.9843982,19.8707643 C36.024267,21.8423179 35.1114536,22.9866265 34.2459578,23.3036899 C32.9477141,23.7792849 23.1783626,28.615182 17.8668114,33.2551258 C12.5552601,37.8950695 11.5134806,40.5799025 10.3477038,44.7231589 C9.18192706,48.8664154 9.18192706,50.5633169 9.51868443,53.2382841 C9.85544179,55.9132513 9.51868443,55.9132513 7.30198078,57.9690604 C5.08527712,60.0248695 2.15546354,61.4262763 0.935775926,64.6739985 C-0.28391169,67.9217207 -0.169173319,70.6339057 0.935775926,72.5692852 C2.04072517,74.5046646 3.37269315,76.0688478 7.30198078,77.3527712 C11.2312684,78.6366946 11.2312684,78.4900698 17.8668114,79.5923073 C21.1397125,80.1359726 27.0439739,80.1359726 30.5767578,79.5923073 C36.1371522,78.73661 39.4714563,77.6810818 41.6986625,78.6366946 C43.9258686,79.5923073 45.6621679,79.5923073 46.4976243,78.6366946 C47.3330807,77.6810818 46.4976243,76.0113961 43.9258686,74.5046646 C41.354113,72.9979331 37.9261315,74.4382497 30.5767578,75.2142385 C23.227384,75.9902274 23.0314158,76.0566423 13.2123959,74.5046646 C3.393376,72.9526869 5.25806008,69.317004 5.79978545,66.9955013 C6.34151083,64.6739985 8.42676392,61.7241523 12.0338622,60.347376" id="Path-2" stroke="#979797"></path>
            <path d="M11.9115589,59.8061229 C12.2791332,61.6887396 14.0799703,66.5276349 19.1891092,67.0336033 C24.2982481,67.5395718 32.2122345,68.4474611 33.7245598,68.4474611 C35.2368851,68.4474611 36.908848,68.9332085 36.908848,67.8201382 C36.908848,66.707068 36.1828145,65.9675444 33.7245598,65.2254575 C31.2663051,64.4833705 29.9308631,64.2181827 27.4965813,63.6734798 C25.0622996,63.128777 24.2982481,63.6734798 22.9988039,61.298226" id="Path-3" stroke="#262B3D"></path>
            <path d="M22.1914014,47.0665418 C30.6531148,44.5027744 34.0724648,45.5795828 35.4022121,48.2805011 C36.7319593,50.9814193 36.7319593,55.0624366 34.8340493,58.1230327 C33.568776,60.16343 32.4459216,62.2946222 31.465486,64.5166092" id="Path-10" stroke="#262B3D"></path>
            <path d="M36.8890739,67.4199987 C39.0606874,67.3157454 40.252266,67.0079515 40.4638096,66.4966171 C40.7811251,65.7296156 39.8132753,64.4883978 38.1019036,64.4883978 C36.390532,64.4883978 36.390532,64.1140539 33.6849731,64.1140539" id="Path-11" stroke="#262B3D"></path>
            <path d="M35.5241002,64.1767701 C35.5241002,64.1767701 36.551512,63.3182794 37.5043494,62.1815714 C38.5291399,60.9590255 39.4845987,59.4520077 39.4845987,59.4520077" id="Path-12" stroke="#262B3D"></path>
            <path d="M34.2585387,59.3135547 C35.477468,58.6622249 36.3682163,58.1439304 36.9307838,57.7586713 C37.4933513,57.3734122 38.1162629,56.8551177 38.7995185,56.2037878" id="Path-13" stroke="#262B3D"></path>
        </g>
    </g>
</svg>