<?xml version="1.0" encoding="UTF-8"?>
<svg width="164px" height="80px" viewBox="0 0 164 80" version="1.1" xmlns="http://www.w3.org/2000/svg" xmlns:xlink="http://www.w3.org/1999/xlink">
    <!-- Generator: Sketch 50 (54983) - http://www.bohemiancoding.com/sketch -->
    <title>Export/relax-5</title>
    <desc>Created with Sketch.</desc>
    <defs></defs>
    <g id="Export/relax-5" stroke="none" stroke-width="1" fill="none" fill-rule="evenodd">
        <g id="Group-3" transform="translate(14.000000, 0.000000)" stroke="#262B3D" stroke-width="0.514469453">
            <g id="Group-2" transform="translate(110.597023, 28.835946) rotate(64.000000) translate(-110.597023, -28.835946) translate(87.597023, 10.335946)">
                <path d="M10.2123885,35.4991194 C8.78902672,34.6195834 7.41708387,33.7475561 6.09655992,32.8830376 C4.115774,31.5862598 0.702438856,29.5470397 0.19288214,25.162519 C-0.316674575,20.7779982 1.08715418,17.3681509 2.83238593,14.8291697 C3.99587376,13.1365156 5.08393176,12.0322346 6.09655992,11.5163268" id="Path-4"></path>
                <path d="M6.4273671,12.8078885 C5.925928,10.8206447 5.67520844,8.99728444 5.67520844,7.33780773 C5.67520844,4.84859267 5.67520844,4.84859267 6.05128777,2.26738943 C6.4273671,-0.313813806 7.96420534,-0.224069242 8.81153996,0.288820942 C9.65887458,0.801711127 10.3656409,1.32807163 12.0038135,3.24351114 C13.0959285,4.52047082 14.096768,5.95000201 15.0063318,7.53210472" id="Path-5"></path>
                <path d="M34.5614165,14.9340855 C34.0599774,12.9468417 33.8092579,11.1234814 33.8092579,9.46400473 C33.8092579,6.97478966 33.8092579,6.97478966 34.1853372,4.39358643 C34.5614165,1.81238319 36.0982548,1.90212775 36.9455894,2.41501793 C37.792924,2.92790812 38.4996903,3.45426862 40.1378629,5.36970813 C41.2299779,6.64666781 42.2308174,8.076199 43.1403812,9.65830171" id="Path-5" transform="translate(38.474820, 8.530141) scale(-1, 1) rotate(-20.000000) translate(-38.474820, -8.530141) "></path>
                <path d="M14.0431939,5.67676213 C14.0431939,5.67676213 19.0967902,4.59241672 24.3572809,4.97943343 C29.4065478,5.35091032 34.6713678,7.19438636 34.6713678,7.19438636" id="Path-6"></path>
                <path d="M29.5191957,36.9523655 C33.9824837,35.8976359 37.1696649,34.7186104 39.0807393,33.4152892 C41.947351,31.4603074 43.1265154,30.1176187 43.9673097,27.0989905 C44.8081039,24.0803622 43.7097972,21.7161171 42.8996599,19.7045604 C42.3595684,18.3635227 41.489385,16.9000561 40.2891096,15.3141607" id="Path-7"></path>
            </g>
            <path d="M64.9095393,7.9479179 C67.3605961,6.29931517 73.9469151,5.02753911 77.5862682,6.72250125 C81.2256213,8.41746339 85.5504593,10.8321201 82.0726284,15.9413128 C78.5947975,21.0505054 73.7420456,24.8500482 72.0376323,25.9577446 C70.3332191,27.065441 68.2422654,27.065441 67.5831723,25.9577446 C66.9240793,24.8500482 67.5831723,23.6847865 69.3444605,21.4314992 C71.1057486,19.1782119 76.4939748,12.3275504 76.4939748,10.1517861" id="Path-2"></path>
            <path d="M82.9317373,14.7549398 C84.7654412,15.2837023 86.1204415,15.6891058 86.9967382,15.9711503 C87.8730349,16.2531948 89.0371673,16.6585982 90.4891353,17.1873607" id="Path-3"></path>
            <path d="M101.270017,47.438636 C98.3715537,49.6074539 89.2942061,53.2952694 85.1933926,54.2506297 C81.0925792,55.20599 76.2106218,56.404194 72.0300381,54.2506297 C67.8494544,52.0970653 68.577815,50.7057083 69.752507,48.2895485 C70.9271991,45.8733887 72.3897714,45.4185987 75.5325817,41.3865029" id="Path-8"></path>
            <path d="M79.0515088,42.4354768 C72.5889098,40.4670417 68.7966134,39.2088207 67.6746198,38.6608137 C65.9916293,37.8388033 65.6845009,38.2364307 65.6845009,35.9067294 C65.6845009,33.5770282 67.6170437,32.7536065 70.9190074,33.1653173 C74.220971,33.5770282 77.2724579,34.1666532 82.4393684,34.6667344 C87.606279,35.1668157 88.7476918,37.4783128 88.7476918,40.0756377 C88.7476918,42.6729625 86.6021644,44.3032133 84.2478653,46.2073238 C81.8935661,48.1114342 81.8935661,48.1114342 79.0515088,50.2065658" id="Path-9"></path>
            <path d="M17.534087,21.3051179 C19.6099629,14.4491695 24.8869653,7.11210065 31.1056166,5.32017511 C37.324268,3.52824956 43.1462124,2.67794256 52.3915693,4.75481084 C58.5551405,6.13938969 66.4702861,8.3896941 76.1370061,11.5057241" id="Path-10"></path>
            <path d="M18.8306439,17.735608 C14.2364451,20.3915328 5.64540992,28.1694884 2.52097759,36.0006359 C-0.603454733,43.8317833 -0.603454733,50.5332468 1.43228459,58.1795054 C3.46802391,65.825764 7.95278268,71.6434848 17.0535825,76.375687 C26.1543824,81.1078893 36.4397458,80.4752836 45.0003018,77.8911695 C53.5608577,75.3070554 60.8399014,69.6005294 64.7431729,68.1734629 C68.6464445,66.7463964 71.6131057,68.0101266 73.4570354,67.4871658 C75.3009652,66.9642051 76.4483553,66.8928039 76.1630054,64.9346603 C75.8776556,62.9765167 75.8776556,61.9075923 72.5013521,60.9290236 C69.1250487,59.950455 62.9541432,60.9290236 55.6583515,66.5363088 C48.3625598,72.143594 42.6160964,74.2652694 34.9861399,74.2652694 C27.3561833,74.2652694 15.58129,69.475697 10.4074162,61.9075923 C5.23354239,54.3394876 5.45499826,48.4622318 7.4799073,42.2314338 C8.82984666,38.0775685 11.9145137,33.3844995 16.7339084,28.1522268" id="Path-11"></path>
            <path d="M16.51537,28.3558367 C14.6382079,36.7306726 18.1632672,47.5780319 22.2194216,51.9343393 C26.275576,56.2906467 30.7011795,62.4649276 33.2730511,65.0227053 C35.8449226,67.580483 37.3264995,68.6347236 39.0118285,68.6347236 C40.6971575,68.6347236 40.6971575,66.8418277 39.6738737,64.2766074 C38.6505899,61.7113871 35.7195029,58.178135 33.2730511,52.5456874 C30.8265992,46.9132398 32.3087939,42.113466 35.3101479,40.7442272 C38.3115019,39.3749884 35.7359039,40.7442272 42.7689801,37.6626167 C49.8020563,34.5810063 52.0294347,28.9460942 53.5348815,23.8127787 C55.0403283,18.6794632 54.0442273,16.43275 49.1267733,14.30047 C48.0136171,13.8177891 45.0023564,13.5197928 43.4788297,13.5197928" id="Path-12"></path>
            <path d="" id="Path-13"></path>
            <path d="M47.0339107,43.7252015 C41.2982291,47.0368114 40.332792,48.9452749 43.4076081,52.3824293 C46.4824242,55.8195836 46.8005352,56.5600806 48.8201577,57.7785046 C50.8397803,58.9969285 50.4651578,61.9472961 49.6426577,62.4948922 C48.8201577,63.0424882 45.7261814,61.8948473 41.6055067,59.3194834 C38.8583903,57.6025742 36.559522,56.1778472 34.7089019,55.0453024" id="Path-14"></path>
            <path d="M38.6181281,39.4853487 C41.3881179,40.9318505 45.3440137,42.8958075 50.4858155,45.3772197 C55.6276174,47.8586319 61.7649459,49.3232583 68.8978011,49.7710988" id="Path-15"></path>
        </g>
    </g>
</svg>