<?xml version="1.0" encoding="UTF-8"?>
<svg width="164px" height="80px" viewBox="0 0 164 80" version="1.1" xmlns="http://www.w3.org/2000/svg" xmlns:xlink="http://www.w3.org/1999/xlink">
    <!-- Generator: Sketch 50 (54983) - http://www.bohemiancoding.com/sketch -->
    <title>Export/useful-5</title>
    <desc>Created with Sketch.</desc>
    <defs></defs>
    <g id="Export/useful-5" stroke="none" stroke-width="1" fill="none" fill-rule="evenodd">
        <path d="M49.8126936,50.0742461 C48.1018869,47.2310234 49.8126936,43.4838567 52.9125932,40.7683139 C56.0124928,38.0527712 57.9915755,35.1568774 67.5220728,29.6061119 C77.05257,24.0553463 85.4000767,20.3623451 88.6879864,19.9319593 C91.9758962,19.5015736 96.8898809,19.0679676 98.6538917,21.7693997 C100.417902,24.4708318 100.900437,27.5117081 95.8599032,31.7014111 C90.8193692,35.8911141 89.2320939,37.3413847 80.1632625,42.2401492 C71.0944312,47.1389137 65.080259,49.6450248 60.4102923,50.8504379 C55.7403255,52.0558509 51.5235003,52.9174688 49.8126936,50.0742461 Z" id="Body-top" stroke="#262B3D" stroke-width="0.5"></path>
        <path d="M49.9732371,50.4106267 C51.233121,52.3385032 52.4721979,54.5349442 54.5479066,55.0476341 C57.0450653,55.6644202 57.0450653,56.1786118 64.8134918,53.3080091 C72.5819183,50.4374063 73.7890333,49.5436033 82.1151598,44.8671298 C90.4412864,40.1906563 94.7713383,37.4075871 97.7540411,34.806536 C100.736744,32.2054849 100.706124,30.7031659 100.600943,28.8301204 C100.495762,26.9570749 100.495762,26.9570749 99.5706208,23.6382185" id="Body-bottom" stroke="#262B3D" stroke-width="0.5"></path>
        <g id="Scissors" transform="translate(39.496653, 4.347458)" stroke="#262B3D" stroke-width="0.5">
            <path d="M13.5822169,36.1804372 L12.4257383,19.06088 L11.1400683,0.0288787798 C13.1404599,3.4104404 14.1406557,6.49070508 14.1406557,9.26967281 C14.1406557,12.0486405 13.5690166,15.3123763 12.4257383,19.06088" id="Path-3"></path>
            <path d="M21.6544303,27.3376139 L0.0868468119,8.1639524 C1.18683618,11.9341312 2.66619592,14.6521043 4.52492605,16.3178715 C6.38365617,17.9836388 8.99801416,18.9343968 12.368,19.1701455" id="Path-4"></path>
        </g>
        <path d="M99.584923,29.4779727 L131.994771,35.2648901 C129.826703,37.6259396 126.719657,38.6805631 122.673632,38.4287606 C118.627607,38.176958 114.710027,36.6851601 110.920892,33.9533667 L98.2287473,31.4613794" id="Knife" stroke="#262B3D" stroke-width="0.5" fill="#FFFFFF"></path>
        <path d="M84.1277456,21.4231636 C84.2684667,12.3560113 84.2684667,7.32064305 84.1277456,6.31705883 C83.9166639,4.81168251 83.5627178,4.81168251 82.9876496,4.01649467 C82.6042708,3.48636945 82.4804584,2.50756739 82.6162125,1.0800885 L88.0708234,1.0800885 C88.1904527,2.43727445 88.090552,3.4160765 87.7711215,4.01649467 C87.2919757,4.91712193 86.7104991,4.91712193 86.4854622,6.31705883 C86.3354376,7.2503501 86.1698475,12.0162512 85.9886918,20.6147621" id="Screwdriver" stroke="#262B3D" stroke-width="0.5"></path>
        <path d="M56.1336306,53.329647 L32.0951534,79.8310099 C37.9403938,80.2300852 41.9468067,79.0651527 44.114392,76.3362125 C46.2819773,73.6072723 47.5925628,70.3553109 48.0461487,66.5803285 L58.9563533,53.329647" id="Knife" stroke="#262B3D" stroke-width="0.5" fill="#FFFFFF"></path>
        <g id="Corkscrew" transform="translate(76.979920, 41.303390)">
            <polygon id="Path" fill="#FFFFFF" points="7.89912608 1.61164429 9.42847666 1.61164429 10.9170091 0.696373782 9.71767936 0.358218854"></polygon>
            <path d="M2.14802087,2.29231229 C3.80863027,1.63203646 5.91612334,-0.0430779239 8.38842073,0.116201021 C9.41755596,0.182503553 11.017404,0.278665155 11.8657466,1.35718557 C14.7520677,5.02664164 11.2284972,7.61454612 7.62712614,9.75904076 C4.02575512,11.9035354 1.10354058,12.4213794 0.254313092,11.2862578 C-0.594914399,10.1511361 1.53968624,8.25568938 4.49988678,6.32172167 C6.4733538,5.03240986 8.82634725,4.22541273 11.5588671,3.90073026" id="Path-8" stroke="#262B3D" stroke-width="0.5"></path>
            <path d="M3.09778757,3.49209398 C5.5730826,1.74277221 9.82508249,0.701375084 11.1589654,2.73816568 C12.4928482,4.77495628 9.05403128,7.21831554 6.61327743,8.672978 C4.9861082,9.64275297 2.80905531,10.2247386 0.0821187789,10.4189348" id="Path-9" stroke="#262B3D" stroke-width="0.5"></path>
            <path d="M12.9402447,4.01964752 C12.9686825,3.94531697 13.587031,4.80928912 14.7952902,6.61156396 C16.6076789,9.31497624 13.9215959,12.1900138 10.7688356,13.9923923 C7.61607536,15.7947709 3.87534851,17.8239552 2.815714,16.0765502 C1.75607949,14.3291452 3.9864146,12.722003 7.04230738,10.6746191 C9.07956924,9.3096965 11.3726654,8.43693622 13.9215959,8.05633826" id="Path-10" stroke="#262B3D" stroke-width="0.5"></path>
            <path d="M12.6151873,5.50413726 C13.558099,6.37503474 14.0295549,7.31431604 14.0295549,8.32198116 C14.0295549,9.83347885 12.0536287,11.5855699 9.32915561,13.2829148 C7.51284022,14.414478 5.25163644,15.1225375 2.54554427,15.4070932" id="Path-11" stroke="#262B3D" stroke-width="0.5"></path>
            <path d="M0.996449329,10.3366346 C2.89733392,8.87222393 4.57701446,7.75348979 6.03549094,6.98043219 C7.49396743,6.20737459 9.13021298,5.56636292 10.9442276,5.05739717" id="Path-12" stroke="#262B3D" stroke-width="0.5"></path>
            <path d="M3.87055993,15.1856867 C5.71541122,13.5004817 7.19372643,12.3375967 8.30550554,11.6970318 C9.41728466,11.0564669 11.2379548,10.2780832 13.767516,9.36188078" id="Path-13" stroke="#262B3D" stroke-width="0.5"></path>
            <path d="M15.4293624,8.33989114 C15.6830966,8.33989114 16.2692904,9.25011901 17.1879441,11.0705747 C18.5659245,13.8012583 16.7800263,15.921826 13.6554887,18.5172043 C10.5309511,21.1125826 7.82413384,22.2559452 6.65266096,21.1378134 C5.48118809,20.0196816 6.87014739,17.8808118 10.1163676,15.5365654 C12.2805144,13.9737345 14.2985616,13.0638397 16.1705092,12.806881" id="Path-14" stroke="#262B3D" stroke-width="0.5"></path>
            <path d="M15.1495883,9.75399492 C15.8414815,10.4637706 16.1874281,11.3661112 16.1874281,12.4610166 C16.1874281,14.1033748 14.7976846,16.1026253 12.2403892,17.872968 C10.5355256,19.0531964 8.5473319,19.8477362 6.27580799,20.2565872" id="Path-15" stroke="#262B3D" stroke-width="0.5"></path>
            <path d="M7.46887873,19.975245 C9.3758786,18.2629405 10.7868425,17.0936459 11.7017705,16.4673614 C12.6166984,15.8410769 13.9522283,15.1027445 15.7083599,14.2523642" id="Path-16" stroke="#262B3D" stroke-width="0.5"></path>
            <path d="M17.688326,12.9214192 C18.5775764,13.4010417 19.1437535,14.042019 19.3868573,14.8443512 C19.7515131,16.0478495 19.8189548,17.6758275 18.5728516,19.1882403 C17.3267485,20.700653 17.3225357,21.424797 17.2670182,23.0115633 C17.2300065,24.0694075 17.583313,25.1378184 18.3269377,26.216796 C16.6329693,24.9607987 15.6885022,23.8923878 15.4935366,23.0115633 C15.2010881,21.6903266 15.6874968,20.549268 16.7231714,18.9712288 C17.7588459,17.3931897 18.303869,16.2147 17.2670182,14.5739105" id="Path-17" stroke="#262B3D" stroke-width="0.5"></path>
        </g>
    </g>
</svg>