<?xml version="1.0" encoding="UTF-8"?>
<svg width="164px" height="80px" viewBox="0 0 164 80" version="1.1" xmlns="http://www.w3.org/2000/svg" xmlns:xlink="http://www.w3.org/1999/xlink">
    <!-- Generator: Sketch 50 (54983) - http://www.bohemiancoding.com/sketch -->
    <title>Export/useful-1</title>
    <desc>Created with Sketch.</desc>
    <defs></defs>
    <g id="Export/useful-1" stroke="none" stroke-width="1" fill="none" fill-rule="evenodd">
        <path d="M49.8126936,50.0742461 C48.1018869,47.2310234 49.8126936,43.4838567 52.9125932,40.7683139 C56.0124928,38.0527712 57.9915755,35.1568774 67.5220728,29.6061119 C77.05257,24.0553463 85.4000767,20.3623451 88.6879864,19.9319593 C91.9758962,19.5015736 96.8898809,19.0679676 98.6538917,21.7693997 C100.417902,24.4708318 100.900437,27.5117081 95.8599032,31.7014111 C90.8193692,35.8911141 89.2320939,37.3413847 80.1632625,42.2401492 C71.0944312,47.1389137 65.080259,49.6450248 60.4102923,50.8504379 C55.7403255,52.0558509 51.5235003,52.9174688 49.8126936,50.0742461 Z" id="Body-top" stroke="#262B3D" stroke-width="0.5"></path>
        <path d="M49.9732371,50.4106267 C51.233121,52.3385032 52.4721979,54.5349442 54.5479066,55.0476341 C57.0450653,55.6644202 57.0450653,56.1786118 64.8134918,53.3080091 C72.5819183,50.4374063 73.7890333,49.5436033 82.1151598,44.8671298 C90.4412864,40.1906563 94.7713383,37.4075871 97.7540411,34.806536 C100.736744,32.2054849 100.706124,30.7031659 100.600943,28.8301204 C100.495762,26.9570749 100.495762,26.9570749 99.5706208,23.6382185" id="Body-bottom" stroke="#262B3D" stroke-width="0.5"></path>
    </g>
</svg>